%
M48
M72
T01C0.03200
T02C0.04000
T03C0.13500
%
T01
X66000Y306000
X81000Y306000
X81000Y266000
X66000Y266000
X26000Y96000
X36000Y96000
X46000Y96000
X46000Y56000
X36000Y56000
X26000Y56000
X126000Y21000
X131000Y36000
X166000Y21000
X171000Y36000
X196000Y296000
X196000Y306000
X196000Y316000
X156000Y316000
X156000Y306000
X156000Y296000
T02
X26000Y366000
X26000Y356000
X36000Y356000
X36000Y366000
X46000Y366000
X46000Y356000
X56000Y356000
X56000Y366000
X66000Y366000
X66000Y356000
X76000Y356000
X76000Y366000
X86000Y366000
X86000Y356000
X96000Y356000
X96000Y366000
X106000Y366000
X106000Y356000
X116000Y356000
X116000Y366000
X126000Y366000
X126000Y356000
X136000Y356000
X136000Y366000
X146000Y366000
X146000Y356000
X156000Y356000
X156000Y366000
X166000Y366000
X166000Y356000
X176000Y356000
X176000Y366000
X186000Y366000
X186000Y356000
X196000Y356000
X196000Y366000
X206000Y366000
X206000Y356000
X216000Y356000
X216000Y366000
X221000Y316000
X221000Y306000
X221000Y296000
X211000Y296000
X211000Y306000
X211000Y316000
X206000Y246000
X206000Y236000
X196000Y236000
X196000Y246000
X186000Y246000
X186000Y236000
X176000Y236000
X176000Y246000
X166000Y246000
X166000Y236000
X156000Y236000
X156000Y246000
X126000Y256000
X126000Y266000
X126000Y276000
X126000Y286000
X126000Y296000
X126000Y306000
X126000Y316000
X121000Y221000
X111000Y221000
X101000Y221000
X91000Y221000
X91000Y161000
X81000Y161000
X71000Y161000
X61000Y161000
X56000Y126000
X56000Y116000
X46000Y116000
X46000Y126000
X36000Y126000
X36000Y116000
X26000Y116000
X26000Y126000
X31000Y221000
X31000Y231000
X31000Y241000
X31000Y251000
X31000Y261000
X31000Y271000
X31000Y281000
X31000Y291000
X31000Y301000
X31000Y311000
X31000Y321000
X31000Y331000
X101000Y161000
X111000Y161000
X121000Y161000
X116000Y126000
X116000Y116000
X106000Y116000
X106000Y126000
X96000Y126000
X96000Y116000
X86000Y116000
X86000Y126000
X76000Y126000
X76000Y116000
X66000Y116000
X66000Y126000
X81000Y86000
X81000Y76000
X81000Y66000
X81000Y56000
X81000Y46000
X81000Y36000
X81000Y26000
X91000Y26000
X91000Y36000
X91000Y46000
X91000Y56000
X91000Y66000
X91000Y76000
X91000Y86000
X116000Y56000
X126000Y56000
X136000Y56000
X146000Y56000
X156000Y56000
X166000Y56000
X176000Y56000
X186000Y56000
X196000Y56000
X206000Y56000
X216000Y56000
X226000Y56000
X216000Y116000
X216000Y126000
X206000Y126000
X206000Y116000
X196000Y116000
X196000Y126000
X186000Y126000
X186000Y116000
X176000Y116000
X176000Y126000
X166000Y126000
X166000Y116000
X156000Y116000
X156000Y126000
X146000Y126000
X146000Y116000
X136000Y116000
X136000Y126000
X126000Y126000
X126000Y116000
X166000Y161000
X176000Y161000
X186000Y161000
X196000Y161000
X216000Y236000
X216000Y246000
X46000Y41000
X46000Y31000
X36000Y31000
X36000Y41000
X26000Y41000
X26000Y31000
T03
X11000Y11000
X11000Y181000
X11000Y211000
X11000Y381000
X231000Y381000
X231000Y211000
X231000Y181000
X231000Y11000
M30
