G75*
%MOIN*%
%OFA0B0*%
%FSLAX25Y25*%
%IPPOS*%
%LPD*%
%AMOC8*
5,1,8,0,0,1.08239X$1,22.5*
%
%ADD10C,0.00000*%
D10*
X0001000Y0001000D02*
X0001039Y0391000D01*
X0261472Y0390961D01*
X0261000Y0001000D01*
X0001000Y0001000D01*
X0004250Y0011000D02*
X0004252Y0011166D01*
X0004258Y0011331D01*
X0004268Y0011497D01*
X0004283Y0011662D01*
X0004301Y0011826D01*
X0004323Y0011990D01*
X0004349Y0012154D01*
X0004380Y0012317D01*
X0004414Y0012479D01*
X0004452Y0012640D01*
X0004495Y0012800D01*
X0004541Y0012959D01*
X0004591Y0013117D01*
X0004645Y0013274D01*
X0004702Y0013429D01*
X0004764Y0013583D01*
X0004829Y0013735D01*
X0004898Y0013886D01*
X0004971Y0014035D01*
X0005047Y0014182D01*
X0005127Y0014327D01*
X0005210Y0014470D01*
X0005297Y0014611D01*
X0005388Y0014750D01*
X0005481Y0014887D01*
X0005578Y0015021D01*
X0005679Y0015153D01*
X0005782Y0015282D01*
X0005889Y0015409D01*
X0005999Y0015533D01*
X0006111Y0015654D01*
X0006227Y0015773D01*
X0006346Y0015889D01*
X0006467Y0016001D01*
X0006591Y0016111D01*
X0006718Y0016218D01*
X0006847Y0016321D01*
X0006979Y0016422D01*
X0007113Y0016519D01*
X0007250Y0016612D01*
X0007389Y0016703D01*
X0007530Y0016790D01*
X0007673Y0016873D01*
X0007818Y0016953D01*
X0007965Y0017029D01*
X0008114Y0017102D01*
X0008265Y0017171D01*
X0008417Y0017236D01*
X0008571Y0017298D01*
X0008726Y0017355D01*
X0008883Y0017409D01*
X0009041Y0017459D01*
X0009200Y0017505D01*
X0009360Y0017548D01*
X0009521Y0017586D01*
X0009683Y0017620D01*
X0009846Y0017651D01*
X0010010Y0017677D01*
X0010174Y0017699D01*
X0010338Y0017717D01*
X0010503Y0017732D01*
X0010669Y0017742D01*
X0010834Y0017748D01*
X0011000Y0017750D01*
X0011166Y0017748D01*
X0011331Y0017742D01*
X0011497Y0017732D01*
X0011662Y0017717D01*
X0011826Y0017699D01*
X0011990Y0017677D01*
X0012154Y0017651D01*
X0012317Y0017620D01*
X0012479Y0017586D01*
X0012640Y0017548D01*
X0012800Y0017505D01*
X0012959Y0017459D01*
X0013117Y0017409D01*
X0013274Y0017355D01*
X0013429Y0017298D01*
X0013583Y0017236D01*
X0013735Y0017171D01*
X0013886Y0017102D01*
X0014035Y0017029D01*
X0014182Y0016953D01*
X0014327Y0016873D01*
X0014470Y0016790D01*
X0014611Y0016703D01*
X0014750Y0016612D01*
X0014887Y0016519D01*
X0015021Y0016422D01*
X0015153Y0016321D01*
X0015282Y0016218D01*
X0015409Y0016111D01*
X0015533Y0016001D01*
X0015654Y0015889D01*
X0015773Y0015773D01*
X0015889Y0015654D01*
X0016001Y0015533D01*
X0016111Y0015409D01*
X0016218Y0015282D01*
X0016321Y0015153D01*
X0016422Y0015021D01*
X0016519Y0014887D01*
X0016612Y0014750D01*
X0016703Y0014611D01*
X0016790Y0014470D01*
X0016873Y0014327D01*
X0016953Y0014182D01*
X0017029Y0014035D01*
X0017102Y0013886D01*
X0017171Y0013735D01*
X0017236Y0013583D01*
X0017298Y0013429D01*
X0017355Y0013274D01*
X0017409Y0013117D01*
X0017459Y0012959D01*
X0017505Y0012800D01*
X0017548Y0012640D01*
X0017586Y0012479D01*
X0017620Y0012317D01*
X0017651Y0012154D01*
X0017677Y0011990D01*
X0017699Y0011826D01*
X0017717Y0011662D01*
X0017732Y0011497D01*
X0017742Y0011331D01*
X0017748Y0011166D01*
X0017750Y0011000D01*
X0017748Y0010834D01*
X0017742Y0010669D01*
X0017732Y0010503D01*
X0017717Y0010338D01*
X0017699Y0010174D01*
X0017677Y0010010D01*
X0017651Y0009846D01*
X0017620Y0009683D01*
X0017586Y0009521D01*
X0017548Y0009360D01*
X0017505Y0009200D01*
X0017459Y0009041D01*
X0017409Y0008883D01*
X0017355Y0008726D01*
X0017298Y0008571D01*
X0017236Y0008417D01*
X0017171Y0008265D01*
X0017102Y0008114D01*
X0017029Y0007965D01*
X0016953Y0007818D01*
X0016873Y0007673D01*
X0016790Y0007530D01*
X0016703Y0007389D01*
X0016612Y0007250D01*
X0016519Y0007113D01*
X0016422Y0006979D01*
X0016321Y0006847D01*
X0016218Y0006718D01*
X0016111Y0006591D01*
X0016001Y0006467D01*
X0015889Y0006346D01*
X0015773Y0006227D01*
X0015654Y0006111D01*
X0015533Y0005999D01*
X0015409Y0005889D01*
X0015282Y0005782D01*
X0015153Y0005679D01*
X0015021Y0005578D01*
X0014887Y0005481D01*
X0014750Y0005388D01*
X0014611Y0005297D01*
X0014470Y0005210D01*
X0014327Y0005127D01*
X0014182Y0005047D01*
X0014035Y0004971D01*
X0013886Y0004898D01*
X0013735Y0004829D01*
X0013583Y0004764D01*
X0013429Y0004702D01*
X0013274Y0004645D01*
X0013117Y0004591D01*
X0012959Y0004541D01*
X0012800Y0004495D01*
X0012640Y0004452D01*
X0012479Y0004414D01*
X0012317Y0004380D01*
X0012154Y0004349D01*
X0011990Y0004323D01*
X0011826Y0004301D01*
X0011662Y0004283D01*
X0011497Y0004268D01*
X0011331Y0004258D01*
X0011166Y0004252D01*
X0011000Y0004250D01*
X0010834Y0004252D01*
X0010669Y0004258D01*
X0010503Y0004268D01*
X0010338Y0004283D01*
X0010174Y0004301D01*
X0010010Y0004323D01*
X0009846Y0004349D01*
X0009683Y0004380D01*
X0009521Y0004414D01*
X0009360Y0004452D01*
X0009200Y0004495D01*
X0009041Y0004541D01*
X0008883Y0004591D01*
X0008726Y0004645D01*
X0008571Y0004702D01*
X0008417Y0004764D01*
X0008265Y0004829D01*
X0008114Y0004898D01*
X0007965Y0004971D01*
X0007818Y0005047D01*
X0007673Y0005127D01*
X0007530Y0005210D01*
X0007389Y0005297D01*
X0007250Y0005388D01*
X0007113Y0005481D01*
X0006979Y0005578D01*
X0006847Y0005679D01*
X0006718Y0005782D01*
X0006591Y0005889D01*
X0006467Y0005999D01*
X0006346Y0006111D01*
X0006227Y0006227D01*
X0006111Y0006346D01*
X0005999Y0006467D01*
X0005889Y0006591D01*
X0005782Y0006718D01*
X0005679Y0006847D01*
X0005578Y0006979D01*
X0005481Y0007113D01*
X0005388Y0007250D01*
X0005297Y0007389D01*
X0005210Y0007530D01*
X0005127Y0007673D01*
X0005047Y0007818D01*
X0004971Y0007965D01*
X0004898Y0008114D01*
X0004829Y0008265D01*
X0004764Y0008417D01*
X0004702Y0008571D01*
X0004645Y0008726D01*
X0004591Y0008883D01*
X0004541Y0009041D01*
X0004495Y0009200D01*
X0004452Y0009360D01*
X0004414Y0009521D01*
X0004380Y0009683D01*
X0004349Y0009846D01*
X0004323Y0010010D01*
X0004301Y0010174D01*
X0004283Y0010338D01*
X0004268Y0010503D01*
X0004258Y0010669D01*
X0004252Y0010834D01*
X0004250Y0011000D01*
X0004250Y0181000D02*
X0004252Y0181166D01*
X0004258Y0181331D01*
X0004268Y0181497D01*
X0004283Y0181662D01*
X0004301Y0181826D01*
X0004323Y0181990D01*
X0004349Y0182154D01*
X0004380Y0182317D01*
X0004414Y0182479D01*
X0004452Y0182640D01*
X0004495Y0182800D01*
X0004541Y0182959D01*
X0004591Y0183117D01*
X0004645Y0183274D01*
X0004702Y0183429D01*
X0004764Y0183583D01*
X0004829Y0183735D01*
X0004898Y0183886D01*
X0004971Y0184035D01*
X0005047Y0184182D01*
X0005127Y0184327D01*
X0005210Y0184470D01*
X0005297Y0184611D01*
X0005388Y0184750D01*
X0005481Y0184887D01*
X0005578Y0185021D01*
X0005679Y0185153D01*
X0005782Y0185282D01*
X0005889Y0185409D01*
X0005999Y0185533D01*
X0006111Y0185654D01*
X0006227Y0185773D01*
X0006346Y0185889D01*
X0006467Y0186001D01*
X0006591Y0186111D01*
X0006718Y0186218D01*
X0006847Y0186321D01*
X0006979Y0186422D01*
X0007113Y0186519D01*
X0007250Y0186612D01*
X0007389Y0186703D01*
X0007530Y0186790D01*
X0007673Y0186873D01*
X0007818Y0186953D01*
X0007965Y0187029D01*
X0008114Y0187102D01*
X0008265Y0187171D01*
X0008417Y0187236D01*
X0008571Y0187298D01*
X0008726Y0187355D01*
X0008883Y0187409D01*
X0009041Y0187459D01*
X0009200Y0187505D01*
X0009360Y0187548D01*
X0009521Y0187586D01*
X0009683Y0187620D01*
X0009846Y0187651D01*
X0010010Y0187677D01*
X0010174Y0187699D01*
X0010338Y0187717D01*
X0010503Y0187732D01*
X0010669Y0187742D01*
X0010834Y0187748D01*
X0011000Y0187750D01*
X0011166Y0187748D01*
X0011331Y0187742D01*
X0011497Y0187732D01*
X0011662Y0187717D01*
X0011826Y0187699D01*
X0011990Y0187677D01*
X0012154Y0187651D01*
X0012317Y0187620D01*
X0012479Y0187586D01*
X0012640Y0187548D01*
X0012800Y0187505D01*
X0012959Y0187459D01*
X0013117Y0187409D01*
X0013274Y0187355D01*
X0013429Y0187298D01*
X0013583Y0187236D01*
X0013735Y0187171D01*
X0013886Y0187102D01*
X0014035Y0187029D01*
X0014182Y0186953D01*
X0014327Y0186873D01*
X0014470Y0186790D01*
X0014611Y0186703D01*
X0014750Y0186612D01*
X0014887Y0186519D01*
X0015021Y0186422D01*
X0015153Y0186321D01*
X0015282Y0186218D01*
X0015409Y0186111D01*
X0015533Y0186001D01*
X0015654Y0185889D01*
X0015773Y0185773D01*
X0015889Y0185654D01*
X0016001Y0185533D01*
X0016111Y0185409D01*
X0016218Y0185282D01*
X0016321Y0185153D01*
X0016422Y0185021D01*
X0016519Y0184887D01*
X0016612Y0184750D01*
X0016703Y0184611D01*
X0016790Y0184470D01*
X0016873Y0184327D01*
X0016953Y0184182D01*
X0017029Y0184035D01*
X0017102Y0183886D01*
X0017171Y0183735D01*
X0017236Y0183583D01*
X0017298Y0183429D01*
X0017355Y0183274D01*
X0017409Y0183117D01*
X0017459Y0182959D01*
X0017505Y0182800D01*
X0017548Y0182640D01*
X0017586Y0182479D01*
X0017620Y0182317D01*
X0017651Y0182154D01*
X0017677Y0181990D01*
X0017699Y0181826D01*
X0017717Y0181662D01*
X0017732Y0181497D01*
X0017742Y0181331D01*
X0017748Y0181166D01*
X0017750Y0181000D01*
X0017748Y0180834D01*
X0017742Y0180669D01*
X0017732Y0180503D01*
X0017717Y0180338D01*
X0017699Y0180174D01*
X0017677Y0180010D01*
X0017651Y0179846D01*
X0017620Y0179683D01*
X0017586Y0179521D01*
X0017548Y0179360D01*
X0017505Y0179200D01*
X0017459Y0179041D01*
X0017409Y0178883D01*
X0017355Y0178726D01*
X0017298Y0178571D01*
X0017236Y0178417D01*
X0017171Y0178265D01*
X0017102Y0178114D01*
X0017029Y0177965D01*
X0016953Y0177818D01*
X0016873Y0177673D01*
X0016790Y0177530D01*
X0016703Y0177389D01*
X0016612Y0177250D01*
X0016519Y0177113D01*
X0016422Y0176979D01*
X0016321Y0176847D01*
X0016218Y0176718D01*
X0016111Y0176591D01*
X0016001Y0176467D01*
X0015889Y0176346D01*
X0015773Y0176227D01*
X0015654Y0176111D01*
X0015533Y0175999D01*
X0015409Y0175889D01*
X0015282Y0175782D01*
X0015153Y0175679D01*
X0015021Y0175578D01*
X0014887Y0175481D01*
X0014750Y0175388D01*
X0014611Y0175297D01*
X0014470Y0175210D01*
X0014327Y0175127D01*
X0014182Y0175047D01*
X0014035Y0174971D01*
X0013886Y0174898D01*
X0013735Y0174829D01*
X0013583Y0174764D01*
X0013429Y0174702D01*
X0013274Y0174645D01*
X0013117Y0174591D01*
X0012959Y0174541D01*
X0012800Y0174495D01*
X0012640Y0174452D01*
X0012479Y0174414D01*
X0012317Y0174380D01*
X0012154Y0174349D01*
X0011990Y0174323D01*
X0011826Y0174301D01*
X0011662Y0174283D01*
X0011497Y0174268D01*
X0011331Y0174258D01*
X0011166Y0174252D01*
X0011000Y0174250D01*
X0010834Y0174252D01*
X0010669Y0174258D01*
X0010503Y0174268D01*
X0010338Y0174283D01*
X0010174Y0174301D01*
X0010010Y0174323D01*
X0009846Y0174349D01*
X0009683Y0174380D01*
X0009521Y0174414D01*
X0009360Y0174452D01*
X0009200Y0174495D01*
X0009041Y0174541D01*
X0008883Y0174591D01*
X0008726Y0174645D01*
X0008571Y0174702D01*
X0008417Y0174764D01*
X0008265Y0174829D01*
X0008114Y0174898D01*
X0007965Y0174971D01*
X0007818Y0175047D01*
X0007673Y0175127D01*
X0007530Y0175210D01*
X0007389Y0175297D01*
X0007250Y0175388D01*
X0007113Y0175481D01*
X0006979Y0175578D01*
X0006847Y0175679D01*
X0006718Y0175782D01*
X0006591Y0175889D01*
X0006467Y0175999D01*
X0006346Y0176111D01*
X0006227Y0176227D01*
X0006111Y0176346D01*
X0005999Y0176467D01*
X0005889Y0176591D01*
X0005782Y0176718D01*
X0005679Y0176847D01*
X0005578Y0176979D01*
X0005481Y0177113D01*
X0005388Y0177250D01*
X0005297Y0177389D01*
X0005210Y0177530D01*
X0005127Y0177673D01*
X0005047Y0177818D01*
X0004971Y0177965D01*
X0004898Y0178114D01*
X0004829Y0178265D01*
X0004764Y0178417D01*
X0004702Y0178571D01*
X0004645Y0178726D01*
X0004591Y0178883D01*
X0004541Y0179041D01*
X0004495Y0179200D01*
X0004452Y0179360D01*
X0004414Y0179521D01*
X0004380Y0179683D01*
X0004349Y0179846D01*
X0004323Y0180010D01*
X0004301Y0180174D01*
X0004283Y0180338D01*
X0004268Y0180503D01*
X0004258Y0180669D01*
X0004252Y0180834D01*
X0004250Y0181000D01*
X0004250Y0211000D02*
X0004252Y0211166D01*
X0004258Y0211331D01*
X0004268Y0211497D01*
X0004283Y0211662D01*
X0004301Y0211826D01*
X0004323Y0211990D01*
X0004349Y0212154D01*
X0004380Y0212317D01*
X0004414Y0212479D01*
X0004452Y0212640D01*
X0004495Y0212800D01*
X0004541Y0212959D01*
X0004591Y0213117D01*
X0004645Y0213274D01*
X0004702Y0213429D01*
X0004764Y0213583D01*
X0004829Y0213735D01*
X0004898Y0213886D01*
X0004971Y0214035D01*
X0005047Y0214182D01*
X0005127Y0214327D01*
X0005210Y0214470D01*
X0005297Y0214611D01*
X0005388Y0214750D01*
X0005481Y0214887D01*
X0005578Y0215021D01*
X0005679Y0215153D01*
X0005782Y0215282D01*
X0005889Y0215409D01*
X0005999Y0215533D01*
X0006111Y0215654D01*
X0006227Y0215773D01*
X0006346Y0215889D01*
X0006467Y0216001D01*
X0006591Y0216111D01*
X0006718Y0216218D01*
X0006847Y0216321D01*
X0006979Y0216422D01*
X0007113Y0216519D01*
X0007250Y0216612D01*
X0007389Y0216703D01*
X0007530Y0216790D01*
X0007673Y0216873D01*
X0007818Y0216953D01*
X0007965Y0217029D01*
X0008114Y0217102D01*
X0008265Y0217171D01*
X0008417Y0217236D01*
X0008571Y0217298D01*
X0008726Y0217355D01*
X0008883Y0217409D01*
X0009041Y0217459D01*
X0009200Y0217505D01*
X0009360Y0217548D01*
X0009521Y0217586D01*
X0009683Y0217620D01*
X0009846Y0217651D01*
X0010010Y0217677D01*
X0010174Y0217699D01*
X0010338Y0217717D01*
X0010503Y0217732D01*
X0010669Y0217742D01*
X0010834Y0217748D01*
X0011000Y0217750D01*
X0011166Y0217748D01*
X0011331Y0217742D01*
X0011497Y0217732D01*
X0011662Y0217717D01*
X0011826Y0217699D01*
X0011990Y0217677D01*
X0012154Y0217651D01*
X0012317Y0217620D01*
X0012479Y0217586D01*
X0012640Y0217548D01*
X0012800Y0217505D01*
X0012959Y0217459D01*
X0013117Y0217409D01*
X0013274Y0217355D01*
X0013429Y0217298D01*
X0013583Y0217236D01*
X0013735Y0217171D01*
X0013886Y0217102D01*
X0014035Y0217029D01*
X0014182Y0216953D01*
X0014327Y0216873D01*
X0014470Y0216790D01*
X0014611Y0216703D01*
X0014750Y0216612D01*
X0014887Y0216519D01*
X0015021Y0216422D01*
X0015153Y0216321D01*
X0015282Y0216218D01*
X0015409Y0216111D01*
X0015533Y0216001D01*
X0015654Y0215889D01*
X0015773Y0215773D01*
X0015889Y0215654D01*
X0016001Y0215533D01*
X0016111Y0215409D01*
X0016218Y0215282D01*
X0016321Y0215153D01*
X0016422Y0215021D01*
X0016519Y0214887D01*
X0016612Y0214750D01*
X0016703Y0214611D01*
X0016790Y0214470D01*
X0016873Y0214327D01*
X0016953Y0214182D01*
X0017029Y0214035D01*
X0017102Y0213886D01*
X0017171Y0213735D01*
X0017236Y0213583D01*
X0017298Y0213429D01*
X0017355Y0213274D01*
X0017409Y0213117D01*
X0017459Y0212959D01*
X0017505Y0212800D01*
X0017548Y0212640D01*
X0017586Y0212479D01*
X0017620Y0212317D01*
X0017651Y0212154D01*
X0017677Y0211990D01*
X0017699Y0211826D01*
X0017717Y0211662D01*
X0017732Y0211497D01*
X0017742Y0211331D01*
X0017748Y0211166D01*
X0017750Y0211000D01*
X0017748Y0210834D01*
X0017742Y0210669D01*
X0017732Y0210503D01*
X0017717Y0210338D01*
X0017699Y0210174D01*
X0017677Y0210010D01*
X0017651Y0209846D01*
X0017620Y0209683D01*
X0017586Y0209521D01*
X0017548Y0209360D01*
X0017505Y0209200D01*
X0017459Y0209041D01*
X0017409Y0208883D01*
X0017355Y0208726D01*
X0017298Y0208571D01*
X0017236Y0208417D01*
X0017171Y0208265D01*
X0017102Y0208114D01*
X0017029Y0207965D01*
X0016953Y0207818D01*
X0016873Y0207673D01*
X0016790Y0207530D01*
X0016703Y0207389D01*
X0016612Y0207250D01*
X0016519Y0207113D01*
X0016422Y0206979D01*
X0016321Y0206847D01*
X0016218Y0206718D01*
X0016111Y0206591D01*
X0016001Y0206467D01*
X0015889Y0206346D01*
X0015773Y0206227D01*
X0015654Y0206111D01*
X0015533Y0205999D01*
X0015409Y0205889D01*
X0015282Y0205782D01*
X0015153Y0205679D01*
X0015021Y0205578D01*
X0014887Y0205481D01*
X0014750Y0205388D01*
X0014611Y0205297D01*
X0014470Y0205210D01*
X0014327Y0205127D01*
X0014182Y0205047D01*
X0014035Y0204971D01*
X0013886Y0204898D01*
X0013735Y0204829D01*
X0013583Y0204764D01*
X0013429Y0204702D01*
X0013274Y0204645D01*
X0013117Y0204591D01*
X0012959Y0204541D01*
X0012800Y0204495D01*
X0012640Y0204452D01*
X0012479Y0204414D01*
X0012317Y0204380D01*
X0012154Y0204349D01*
X0011990Y0204323D01*
X0011826Y0204301D01*
X0011662Y0204283D01*
X0011497Y0204268D01*
X0011331Y0204258D01*
X0011166Y0204252D01*
X0011000Y0204250D01*
X0010834Y0204252D01*
X0010669Y0204258D01*
X0010503Y0204268D01*
X0010338Y0204283D01*
X0010174Y0204301D01*
X0010010Y0204323D01*
X0009846Y0204349D01*
X0009683Y0204380D01*
X0009521Y0204414D01*
X0009360Y0204452D01*
X0009200Y0204495D01*
X0009041Y0204541D01*
X0008883Y0204591D01*
X0008726Y0204645D01*
X0008571Y0204702D01*
X0008417Y0204764D01*
X0008265Y0204829D01*
X0008114Y0204898D01*
X0007965Y0204971D01*
X0007818Y0205047D01*
X0007673Y0205127D01*
X0007530Y0205210D01*
X0007389Y0205297D01*
X0007250Y0205388D01*
X0007113Y0205481D01*
X0006979Y0205578D01*
X0006847Y0205679D01*
X0006718Y0205782D01*
X0006591Y0205889D01*
X0006467Y0205999D01*
X0006346Y0206111D01*
X0006227Y0206227D01*
X0006111Y0206346D01*
X0005999Y0206467D01*
X0005889Y0206591D01*
X0005782Y0206718D01*
X0005679Y0206847D01*
X0005578Y0206979D01*
X0005481Y0207113D01*
X0005388Y0207250D01*
X0005297Y0207389D01*
X0005210Y0207530D01*
X0005127Y0207673D01*
X0005047Y0207818D01*
X0004971Y0207965D01*
X0004898Y0208114D01*
X0004829Y0208265D01*
X0004764Y0208417D01*
X0004702Y0208571D01*
X0004645Y0208726D01*
X0004591Y0208883D01*
X0004541Y0209041D01*
X0004495Y0209200D01*
X0004452Y0209360D01*
X0004414Y0209521D01*
X0004380Y0209683D01*
X0004349Y0209846D01*
X0004323Y0210010D01*
X0004301Y0210174D01*
X0004283Y0210338D01*
X0004268Y0210503D01*
X0004258Y0210669D01*
X0004252Y0210834D01*
X0004250Y0211000D01*
X0004250Y0381000D02*
X0004252Y0381166D01*
X0004258Y0381331D01*
X0004268Y0381497D01*
X0004283Y0381662D01*
X0004301Y0381826D01*
X0004323Y0381990D01*
X0004349Y0382154D01*
X0004380Y0382317D01*
X0004414Y0382479D01*
X0004452Y0382640D01*
X0004495Y0382800D01*
X0004541Y0382959D01*
X0004591Y0383117D01*
X0004645Y0383274D01*
X0004702Y0383429D01*
X0004764Y0383583D01*
X0004829Y0383735D01*
X0004898Y0383886D01*
X0004971Y0384035D01*
X0005047Y0384182D01*
X0005127Y0384327D01*
X0005210Y0384470D01*
X0005297Y0384611D01*
X0005388Y0384750D01*
X0005481Y0384887D01*
X0005578Y0385021D01*
X0005679Y0385153D01*
X0005782Y0385282D01*
X0005889Y0385409D01*
X0005999Y0385533D01*
X0006111Y0385654D01*
X0006227Y0385773D01*
X0006346Y0385889D01*
X0006467Y0386001D01*
X0006591Y0386111D01*
X0006718Y0386218D01*
X0006847Y0386321D01*
X0006979Y0386422D01*
X0007113Y0386519D01*
X0007250Y0386612D01*
X0007389Y0386703D01*
X0007530Y0386790D01*
X0007673Y0386873D01*
X0007818Y0386953D01*
X0007965Y0387029D01*
X0008114Y0387102D01*
X0008265Y0387171D01*
X0008417Y0387236D01*
X0008571Y0387298D01*
X0008726Y0387355D01*
X0008883Y0387409D01*
X0009041Y0387459D01*
X0009200Y0387505D01*
X0009360Y0387548D01*
X0009521Y0387586D01*
X0009683Y0387620D01*
X0009846Y0387651D01*
X0010010Y0387677D01*
X0010174Y0387699D01*
X0010338Y0387717D01*
X0010503Y0387732D01*
X0010669Y0387742D01*
X0010834Y0387748D01*
X0011000Y0387750D01*
X0011166Y0387748D01*
X0011331Y0387742D01*
X0011497Y0387732D01*
X0011662Y0387717D01*
X0011826Y0387699D01*
X0011990Y0387677D01*
X0012154Y0387651D01*
X0012317Y0387620D01*
X0012479Y0387586D01*
X0012640Y0387548D01*
X0012800Y0387505D01*
X0012959Y0387459D01*
X0013117Y0387409D01*
X0013274Y0387355D01*
X0013429Y0387298D01*
X0013583Y0387236D01*
X0013735Y0387171D01*
X0013886Y0387102D01*
X0014035Y0387029D01*
X0014182Y0386953D01*
X0014327Y0386873D01*
X0014470Y0386790D01*
X0014611Y0386703D01*
X0014750Y0386612D01*
X0014887Y0386519D01*
X0015021Y0386422D01*
X0015153Y0386321D01*
X0015282Y0386218D01*
X0015409Y0386111D01*
X0015533Y0386001D01*
X0015654Y0385889D01*
X0015773Y0385773D01*
X0015889Y0385654D01*
X0016001Y0385533D01*
X0016111Y0385409D01*
X0016218Y0385282D01*
X0016321Y0385153D01*
X0016422Y0385021D01*
X0016519Y0384887D01*
X0016612Y0384750D01*
X0016703Y0384611D01*
X0016790Y0384470D01*
X0016873Y0384327D01*
X0016953Y0384182D01*
X0017029Y0384035D01*
X0017102Y0383886D01*
X0017171Y0383735D01*
X0017236Y0383583D01*
X0017298Y0383429D01*
X0017355Y0383274D01*
X0017409Y0383117D01*
X0017459Y0382959D01*
X0017505Y0382800D01*
X0017548Y0382640D01*
X0017586Y0382479D01*
X0017620Y0382317D01*
X0017651Y0382154D01*
X0017677Y0381990D01*
X0017699Y0381826D01*
X0017717Y0381662D01*
X0017732Y0381497D01*
X0017742Y0381331D01*
X0017748Y0381166D01*
X0017750Y0381000D01*
X0017748Y0380834D01*
X0017742Y0380669D01*
X0017732Y0380503D01*
X0017717Y0380338D01*
X0017699Y0380174D01*
X0017677Y0380010D01*
X0017651Y0379846D01*
X0017620Y0379683D01*
X0017586Y0379521D01*
X0017548Y0379360D01*
X0017505Y0379200D01*
X0017459Y0379041D01*
X0017409Y0378883D01*
X0017355Y0378726D01*
X0017298Y0378571D01*
X0017236Y0378417D01*
X0017171Y0378265D01*
X0017102Y0378114D01*
X0017029Y0377965D01*
X0016953Y0377818D01*
X0016873Y0377673D01*
X0016790Y0377530D01*
X0016703Y0377389D01*
X0016612Y0377250D01*
X0016519Y0377113D01*
X0016422Y0376979D01*
X0016321Y0376847D01*
X0016218Y0376718D01*
X0016111Y0376591D01*
X0016001Y0376467D01*
X0015889Y0376346D01*
X0015773Y0376227D01*
X0015654Y0376111D01*
X0015533Y0375999D01*
X0015409Y0375889D01*
X0015282Y0375782D01*
X0015153Y0375679D01*
X0015021Y0375578D01*
X0014887Y0375481D01*
X0014750Y0375388D01*
X0014611Y0375297D01*
X0014470Y0375210D01*
X0014327Y0375127D01*
X0014182Y0375047D01*
X0014035Y0374971D01*
X0013886Y0374898D01*
X0013735Y0374829D01*
X0013583Y0374764D01*
X0013429Y0374702D01*
X0013274Y0374645D01*
X0013117Y0374591D01*
X0012959Y0374541D01*
X0012800Y0374495D01*
X0012640Y0374452D01*
X0012479Y0374414D01*
X0012317Y0374380D01*
X0012154Y0374349D01*
X0011990Y0374323D01*
X0011826Y0374301D01*
X0011662Y0374283D01*
X0011497Y0374268D01*
X0011331Y0374258D01*
X0011166Y0374252D01*
X0011000Y0374250D01*
X0010834Y0374252D01*
X0010669Y0374258D01*
X0010503Y0374268D01*
X0010338Y0374283D01*
X0010174Y0374301D01*
X0010010Y0374323D01*
X0009846Y0374349D01*
X0009683Y0374380D01*
X0009521Y0374414D01*
X0009360Y0374452D01*
X0009200Y0374495D01*
X0009041Y0374541D01*
X0008883Y0374591D01*
X0008726Y0374645D01*
X0008571Y0374702D01*
X0008417Y0374764D01*
X0008265Y0374829D01*
X0008114Y0374898D01*
X0007965Y0374971D01*
X0007818Y0375047D01*
X0007673Y0375127D01*
X0007530Y0375210D01*
X0007389Y0375297D01*
X0007250Y0375388D01*
X0007113Y0375481D01*
X0006979Y0375578D01*
X0006847Y0375679D01*
X0006718Y0375782D01*
X0006591Y0375889D01*
X0006467Y0375999D01*
X0006346Y0376111D01*
X0006227Y0376227D01*
X0006111Y0376346D01*
X0005999Y0376467D01*
X0005889Y0376591D01*
X0005782Y0376718D01*
X0005679Y0376847D01*
X0005578Y0376979D01*
X0005481Y0377113D01*
X0005388Y0377250D01*
X0005297Y0377389D01*
X0005210Y0377530D01*
X0005127Y0377673D01*
X0005047Y0377818D01*
X0004971Y0377965D01*
X0004898Y0378114D01*
X0004829Y0378265D01*
X0004764Y0378417D01*
X0004702Y0378571D01*
X0004645Y0378726D01*
X0004591Y0378883D01*
X0004541Y0379041D01*
X0004495Y0379200D01*
X0004452Y0379360D01*
X0004414Y0379521D01*
X0004380Y0379683D01*
X0004349Y0379846D01*
X0004323Y0380010D01*
X0004301Y0380174D01*
X0004283Y0380338D01*
X0004268Y0380503D01*
X0004258Y0380669D01*
X0004252Y0380834D01*
X0004250Y0381000D01*
X0224250Y0381000D02*
X0224252Y0381166D01*
X0224258Y0381331D01*
X0224268Y0381497D01*
X0224283Y0381662D01*
X0224301Y0381826D01*
X0224323Y0381990D01*
X0224349Y0382154D01*
X0224380Y0382317D01*
X0224414Y0382479D01*
X0224452Y0382640D01*
X0224495Y0382800D01*
X0224541Y0382959D01*
X0224591Y0383117D01*
X0224645Y0383274D01*
X0224702Y0383429D01*
X0224764Y0383583D01*
X0224829Y0383735D01*
X0224898Y0383886D01*
X0224971Y0384035D01*
X0225047Y0384182D01*
X0225127Y0384327D01*
X0225210Y0384470D01*
X0225297Y0384611D01*
X0225388Y0384750D01*
X0225481Y0384887D01*
X0225578Y0385021D01*
X0225679Y0385153D01*
X0225782Y0385282D01*
X0225889Y0385409D01*
X0225999Y0385533D01*
X0226111Y0385654D01*
X0226227Y0385773D01*
X0226346Y0385889D01*
X0226467Y0386001D01*
X0226591Y0386111D01*
X0226718Y0386218D01*
X0226847Y0386321D01*
X0226979Y0386422D01*
X0227113Y0386519D01*
X0227250Y0386612D01*
X0227389Y0386703D01*
X0227530Y0386790D01*
X0227673Y0386873D01*
X0227818Y0386953D01*
X0227965Y0387029D01*
X0228114Y0387102D01*
X0228265Y0387171D01*
X0228417Y0387236D01*
X0228571Y0387298D01*
X0228726Y0387355D01*
X0228883Y0387409D01*
X0229041Y0387459D01*
X0229200Y0387505D01*
X0229360Y0387548D01*
X0229521Y0387586D01*
X0229683Y0387620D01*
X0229846Y0387651D01*
X0230010Y0387677D01*
X0230174Y0387699D01*
X0230338Y0387717D01*
X0230503Y0387732D01*
X0230669Y0387742D01*
X0230834Y0387748D01*
X0231000Y0387750D01*
X0231166Y0387748D01*
X0231331Y0387742D01*
X0231497Y0387732D01*
X0231662Y0387717D01*
X0231826Y0387699D01*
X0231990Y0387677D01*
X0232154Y0387651D01*
X0232317Y0387620D01*
X0232479Y0387586D01*
X0232640Y0387548D01*
X0232800Y0387505D01*
X0232959Y0387459D01*
X0233117Y0387409D01*
X0233274Y0387355D01*
X0233429Y0387298D01*
X0233583Y0387236D01*
X0233735Y0387171D01*
X0233886Y0387102D01*
X0234035Y0387029D01*
X0234182Y0386953D01*
X0234327Y0386873D01*
X0234470Y0386790D01*
X0234611Y0386703D01*
X0234750Y0386612D01*
X0234887Y0386519D01*
X0235021Y0386422D01*
X0235153Y0386321D01*
X0235282Y0386218D01*
X0235409Y0386111D01*
X0235533Y0386001D01*
X0235654Y0385889D01*
X0235773Y0385773D01*
X0235889Y0385654D01*
X0236001Y0385533D01*
X0236111Y0385409D01*
X0236218Y0385282D01*
X0236321Y0385153D01*
X0236422Y0385021D01*
X0236519Y0384887D01*
X0236612Y0384750D01*
X0236703Y0384611D01*
X0236790Y0384470D01*
X0236873Y0384327D01*
X0236953Y0384182D01*
X0237029Y0384035D01*
X0237102Y0383886D01*
X0237171Y0383735D01*
X0237236Y0383583D01*
X0237298Y0383429D01*
X0237355Y0383274D01*
X0237409Y0383117D01*
X0237459Y0382959D01*
X0237505Y0382800D01*
X0237548Y0382640D01*
X0237586Y0382479D01*
X0237620Y0382317D01*
X0237651Y0382154D01*
X0237677Y0381990D01*
X0237699Y0381826D01*
X0237717Y0381662D01*
X0237732Y0381497D01*
X0237742Y0381331D01*
X0237748Y0381166D01*
X0237750Y0381000D01*
X0237748Y0380834D01*
X0237742Y0380669D01*
X0237732Y0380503D01*
X0237717Y0380338D01*
X0237699Y0380174D01*
X0237677Y0380010D01*
X0237651Y0379846D01*
X0237620Y0379683D01*
X0237586Y0379521D01*
X0237548Y0379360D01*
X0237505Y0379200D01*
X0237459Y0379041D01*
X0237409Y0378883D01*
X0237355Y0378726D01*
X0237298Y0378571D01*
X0237236Y0378417D01*
X0237171Y0378265D01*
X0237102Y0378114D01*
X0237029Y0377965D01*
X0236953Y0377818D01*
X0236873Y0377673D01*
X0236790Y0377530D01*
X0236703Y0377389D01*
X0236612Y0377250D01*
X0236519Y0377113D01*
X0236422Y0376979D01*
X0236321Y0376847D01*
X0236218Y0376718D01*
X0236111Y0376591D01*
X0236001Y0376467D01*
X0235889Y0376346D01*
X0235773Y0376227D01*
X0235654Y0376111D01*
X0235533Y0375999D01*
X0235409Y0375889D01*
X0235282Y0375782D01*
X0235153Y0375679D01*
X0235021Y0375578D01*
X0234887Y0375481D01*
X0234750Y0375388D01*
X0234611Y0375297D01*
X0234470Y0375210D01*
X0234327Y0375127D01*
X0234182Y0375047D01*
X0234035Y0374971D01*
X0233886Y0374898D01*
X0233735Y0374829D01*
X0233583Y0374764D01*
X0233429Y0374702D01*
X0233274Y0374645D01*
X0233117Y0374591D01*
X0232959Y0374541D01*
X0232800Y0374495D01*
X0232640Y0374452D01*
X0232479Y0374414D01*
X0232317Y0374380D01*
X0232154Y0374349D01*
X0231990Y0374323D01*
X0231826Y0374301D01*
X0231662Y0374283D01*
X0231497Y0374268D01*
X0231331Y0374258D01*
X0231166Y0374252D01*
X0231000Y0374250D01*
X0230834Y0374252D01*
X0230669Y0374258D01*
X0230503Y0374268D01*
X0230338Y0374283D01*
X0230174Y0374301D01*
X0230010Y0374323D01*
X0229846Y0374349D01*
X0229683Y0374380D01*
X0229521Y0374414D01*
X0229360Y0374452D01*
X0229200Y0374495D01*
X0229041Y0374541D01*
X0228883Y0374591D01*
X0228726Y0374645D01*
X0228571Y0374702D01*
X0228417Y0374764D01*
X0228265Y0374829D01*
X0228114Y0374898D01*
X0227965Y0374971D01*
X0227818Y0375047D01*
X0227673Y0375127D01*
X0227530Y0375210D01*
X0227389Y0375297D01*
X0227250Y0375388D01*
X0227113Y0375481D01*
X0226979Y0375578D01*
X0226847Y0375679D01*
X0226718Y0375782D01*
X0226591Y0375889D01*
X0226467Y0375999D01*
X0226346Y0376111D01*
X0226227Y0376227D01*
X0226111Y0376346D01*
X0225999Y0376467D01*
X0225889Y0376591D01*
X0225782Y0376718D01*
X0225679Y0376847D01*
X0225578Y0376979D01*
X0225481Y0377113D01*
X0225388Y0377250D01*
X0225297Y0377389D01*
X0225210Y0377530D01*
X0225127Y0377673D01*
X0225047Y0377818D01*
X0224971Y0377965D01*
X0224898Y0378114D01*
X0224829Y0378265D01*
X0224764Y0378417D01*
X0224702Y0378571D01*
X0224645Y0378726D01*
X0224591Y0378883D01*
X0224541Y0379041D01*
X0224495Y0379200D01*
X0224452Y0379360D01*
X0224414Y0379521D01*
X0224380Y0379683D01*
X0224349Y0379846D01*
X0224323Y0380010D01*
X0224301Y0380174D01*
X0224283Y0380338D01*
X0224268Y0380503D01*
X0224258Y0380669D01*
X0224252Y0380834D01*
X0224250Y0381000D01*
X0224250Y0211000D02*
X0224252Y0211166D01*
X0224258Y0211331D01*
X0224268Y0211497D01*
X0224283Y0211662D01*
X0224301Y0211826D01*
X0224323Y0211990D01*
X0224349Y0212154D01*
X0224380Y0212317D01*
X0224414Y0212479D01*
X0224452Y0212640D01*
X0224495Y0212800D01*
X0224541Y0212959D01*
X0224591Y0213117D01*
X0224645Y0213274D01*
X0224702Y0213429D01*
X0224764Y0213583D01*
X0224829Y0213735D01*
X0224898Y0213886D01*
X0224971Y0214035D01*
X0225047Y0214182D01*
X0225127Y0214327D01*
X0225210Y0214470D01*
X0225297Y0214611D01*
X0225388Y0214750D01*
X0225481Y0214887D01*
X0225578Y0215021D01*
X0225679Y0215153D01*
X0225782Y0215282D01*
X0225889Y0215409D01*
X0225999Y0215533D01*
X0226111Y0215654D01*
X0226227Y0215773D01*
X0226346Y0215889D01*
X0226467Y0216001D01*
X0226591Y0216111D01*
X0226718Y0216218D01*
X0226847Y0216321D01*
X0226979Y0216422D01*
X0227113Y0216519D01*
X0227250Y0216612D01*
X0227389Y0216703D01*
X0227530Y0216790D01*
X0227673Y0216873D01*
X0227818Y0216953D01*
X0227965Y0217029D01*
X0228114Y0217102D01*
X0228265Y0217171D01*
X0228417Y0217236D01*
X0228571Y0217298D01*
X0228726Y0217355D01*
X0228883Y0217409D01*
X0229041Y0217459D01*
X0229200Y0217505D01*
X0229360Y0217548D01*
X0229521Y0217586D01*
X0229683Y0217620D01*
X0229846Y0217651D01*
X0230010Y0217677D01*
X0230174Y0217699D01*
X0230338Y0217717D01*
X0230503Y0217732D01*
X0230669Y0217742D01*
X0230834Y0217748D01*
X0231000Y0217750D01*
X0231166Y0217748D01*
X0231331Y0217742D01*
X0231497Y0217732D01*
X0231662Y0217717D01*
X0231826Y0217699D01*
X0231990Y0217677D01*
X0232154Y0217651D01*
X0232317Y0217620D01*
X0232479Y0217586D01*
X0232640Y0217548D01*
X0232800Y0217505D01*
X0232959Y0217459D01*
X0233117Y0217409D01*
X0233274Y0217355D01*
X0233429Y0217298D01*
X0233583Y0217236D01*
X0233735Y0217171D01*
X0233886Y0217102D01*
X0234035Y0217029D01*
X0234182Y0216953D01*
X0234327Y0216873D01*
X0234470Y0216790D01*
X0234611Y0216703D01*
X0234750Y0216612D01*
X0234887Y0216519D01*
X0235021Y0216422D01*
X0235153Y0216321D01*
X0235282Y0216218D01*
X0235409Y0216111D01*
X0235533Y0216001D01*
X0235654Y0215889D01*
X0235773Y0215773D01*
X0235889Y0215654D01*
X0236001Y0215533D01*
X0236111Y0215409D01*
X0236218Y0215282D01*
X0236321Y0215153D01*
X0236422Y0215021D01*
X0236519Y0214887D01*
X0236612Y0214750D01*
X0236703Y0214611D01*
X0236790Y0214470D01*
X0236873Y0214327D01*
X0236953Y0214182D01*
X0237029Y0214035D01*
X0237102Y0213886D01*
X0237171Y0213735D01*
X0237236Y0213583D01*
X0237298Y0213429D01*
X0237355Y0213274D01*
X0237409Y0213117D01*
X0237459Y0212959D01*
X0237505Y0212800D01*
X0237548Y0212640D01*
X0237586Y0212479D01*
X0237620Y0212317D01*
X0237651Y0212154D01*
X0237677Y0211990D01*
X0237699Y0211826D01*
X0237717Y0211662D01*
X0237732Y0211497D01*
X0237742Y0211331D01*
X0237748Y0211166D01*
X0237750Y0211000D01*
X0237748Y0210834D01*
X0237742Y0210669D01*
X0237732Y0210503D01*
X0237717Y0210338D01*
X0237699Y0210174D01*
X0237677Y0210010D01*
X0237651Y0209846D01*
X0237620Y0209683D01*
X0237586Y0209521D01*
X0237548Y0209360D01*
X0237505Y0209200D01*
X0237459Y0209041D01*
X0237409Y0208883D01*
X0237355Y0208726D01*
X0237298Y0208571D01*
X0237236Y0208417D01*
X0237171Y0208265D01*
X0237102Y0208114D01*
X0237029Y0207965D01*
X0236953Y0207818D01*
X0236873Y0207673D01*
X0236790Y0207530D01*
X0236703Y0207389D01*
X0236612Y0207250D01*
X0236519Y0207113D01*
X0236422Y0206979D01*
X0236321Y0206847D01*
X0236218Y0206718D01*
X0236111Y0206591D01*
X0236001Y0206467D01*
X0235889Y0206346D01*
X0235773Y0206227D01*
X0235654Y0206111D01*
X0235533Y0205999D01*
X0235409Y0205889D01*
X0235282Y0205782D01*
X0235153Y0205679D01*
X0235021Y0205578D01*
X0234887Y0205481D01*
X0234750Y0205388D01*
X0234611Y0205297D01*
X0234470Y0205210D01*
X0234327Y0205127D01*
X0234182Y0205047D01*
X0234035Y0204971D01*
X0233886Y0204898D01*
X0233735Y0204829D01*
X0233583Y0204764D01*
X0233429Y0204702D01*
X0233274Y0204645D01*
X0233117Y0204591D01*
X0232959Y0204541D01*
X0232800Y0204495D01*
X0232640Y0204452D01*
X0232479Y0204414D01*
X0232317Y0204380D01*
X0232154Y0204349D01*
X0231990Y0204323D01*
X0231826Y0204301D01*
X0231662Y0204283D01*
X0231497Y0204268D01*
X0231331Y0204258D01*
X0231166Y0204252D01*
X0231000Y0204250D01*
X0230834Y0204252D01*
X0230669Y0204258D01*
X0230503Y0204268D01*
X0230338Y0204283D01*
X0230174Y0204301D01*
X0230010Y0204323D01*
X0229846Y0204349D01*
X0229683Y0204380D01*
X0229521Y0204414D01*
X0229360Y0204452D01*
X0229200Y0204495D01*
X0229041Y0204541D01*
X0228883Y0204591D01*
X0228726Y0204645D01*
X0228571Y0204702D01*
X0228417Y0204764D01*
X0228265Y0204829D01*
X0228114Y0204898D01*
X0227965Y0204971D01*
X0227818Y0205047D01*
X0227673Y0205127D01*
X0227530Y0205210D01*
X0227389Y0205297D01*
X0227250Y0205388D01*
X0227113Y0205481D01*
X0226979Y0205578D01*
X0226847Y0205679D01*
X0226718Y0205782D01*
X0226591Y0205889D01*
X0226467Y0205999D01*
X0226346Y0206111D01*
X0226227Y0206227D01*
X0226111Y0206346D01*
X0225999Y0206467D01*
X0225889Y0206591D01*
X0225782Y0206718D01*
X0225679Y0206847D01*
X0225578Y0206979D01*
X0225481Y0207113D01*
X0225388Y0207250D01*
X0225297Y0207389D01*
X0225210Y0207530D01*
X0225127Y0207673D01*
X0225047Y0207818D01*
X0224971Y0207965D01*
X0224898Y0208114D01*
X0224829Y0208265D01*
X0224764Y0208417D01*
X0224702Y0208571D01*
X0224645Y0208726D01*
X0224591Y0208883D01*
X0224541Y0209041D01*
X0224495Y0209200D01*
X0224452Y0209360D01*
X0224414Y0209521D01*
X0224380Y0209683D01*
X0224349Y0209846D01*
X0224323Y0210010D01*
X0224301Y0210174D01*
X0224283Y0210338D01*
X0224268Y0210503D01*
X0224258Y0210669D01*
X0224252Y0210834D01*
X0224250Y0211000D01*
X0224250Y0181000D02*
X0224252Y0181166D01*
X0224258Y0181331D01*
X0224268Y0181497D01*
X0224283Y0181662D01*
X0224301Y0181826D01*
X0224323Y0181990D01*
X0224349Y0182154D01*
X0224380Y0182317D01*
X0224414Y0182479D01*
X0224452Y0182640D01*
X0224495Y0182800D01*
X0224541Y0182959D01*
X0224591Y0183117D01*
X0224645Y0183274D01*
X0224702Y0183429D01*
X0224764Y0183583D01*
X0224829Y0183735D01*
X0224898Y0183886D01*
X0224971Y0184035D01*
X0225047Y0184182D01*
X0225127Y0184327D01*
X0225210Y0184470D01*
X0225297Y0184611D01*
X0225388Y0184750D01*
X0225481Y0184887D01*
X0225578Y0185021D01*
X0225679Y0185153D01*
X0225782Y0185282D01*
X0225889Y0185409D01*
X0225999Y0185533D01*
X0226111Y0185654D01*
X0226227Y0185773D01*
X0226346Y0185889D01*
X0226467Y0186001D01*
X0226591Y0186111D01*
X0226718Y0186218D01*
X0226847Y0186321D01*
X0226979Y0186422D01*
X0227113Y0186519D01*
X0227250Y0186612D01*
X0227389Y0186703D01*
X0227530Y0186790D01*
X0227673Y0186873D01*
X0227818Y0186953D01*
X0227965Y0187029D01*
X0228114Y0187102D01*
X0228265Y0187171D01*
X0228417Y0187236D01*
X0228571Y0187298D01*
X0228726Y0187355D01*
X0228883Y0187409D01*
X0229041Y0187459D01*
X0229200Y0187505D01*
X0229360Y0187548D01*
X0229521Y0187586D01*
X0229683Y0187620D01*
X0229846Y0187651D01*
X0230010Y0187677D01*
X0230174Y0187699D01*
X0230338Y0187717D01*
X0230503Y0187732D01*
X0230669Y0187742D01*
X0230834Y0187748D01*
X0231000Y0187750D01*
X0231166Y0187748D01*
X0231331Y0187742D01*
X0231497Y0187732D01*
X0231662Y0187717D01*
X0231826Y0187699D01*
X0231990Y0187677D01*
X0232154Y0187651D01*
X0232317Y0187620D01*
X0232479Y0187586D01*
X0232640Y0187548D01*
X0232800Y0187505D01*
X0232959Y0187459D01*
X0233117Y0187409D01*
X0233274Y0187355D01*
X0233429Y0187298D01*
X0233583Y0187236D01*
X0233735Y0187171D01*
X0233886Y0187102D01*
X0234035Y0187029D01*
X0234182Y0186953D01*
X0234327Y0186873D01*
X0234470Y0186790D01*
X0234611Y0186703D01*
X0234750Y0186612D01*
X0234887Y0186519D01*
X0235021Y0186422D01*
X0235153Y0186321D01*
X0235282Y0186218D01*
X0235409Y0186111D01*
X0235533Y0186001D01*
X0235654Y0185889D01*
X0235773Y0185773D01*
X0235889Y0185654D01*
X0236001Y0185533D01*
X0236111Y0185409D01*
X0236218Y0185282D01*
X0236321Y0185153D01*
X0236422Y0185021D01*
X0236519Y0184887D01*
X0236612Y0184750D01*
X0236703Y0184611D01*
X0236790Y0184470D01*
X0236873Y0184327D01*
X0236953Y0184182D01*
X0237029Y0184035D01*
X0237102Y0183886D01*
X0237171Y0183735D01*
X0237236Y0183583D01*
X0237298Y0183429D01*
X0237355Y0183274D01*
X0237409Y0183117D01*
X0237459Y0182959D01*
X0237505Y0182800D01*
X0237548Y0182640D01*
X0237586Y0182479D01*
X0237620Y0182317D01*
X0237651Y0182154D01*
X0237677Y0181990D01*
X0237699Y0181826D01*
X0237717Y0181662D01*
X0237732Y0181497D01*
X0237742Y0181331D01*
X0237748Y0181166D01*
X0237750Y0181000D01*
X0237748Y0180834D01*
X0237742Y0180669D01*
X0237732Y0180503D01*
X0237717Y0180338D01*
X0237699Y0180174D01*
X0237677Y0180010D01*
X0237651Y0179846D01*
X0237620Y0179683D01*
X0237586Y0179521D01*
X0237548Y0179360D01*
X0237505Y0179200D01*
X0237459Y0179041D01*
X0237409Y0178883D01*
X0237355Y0178726D01*
X0237298Y0178571D01*
X0237236Y0178417D01*
X0237171Y0178265D01*
X0237102Y0178114D01*
X0237029Y0177965D01*
X0236953Y0177818D01*
X0236873Y0177673D01*
X0236790Y0177530D01*
X0236703Y0177389D01*
X0236612Y0177250D01*
X0236519Y0177113D01*
X0236422Y0176979D01*
X0236321Y0176847D01*
X0236218Y0176718D01*
X0236111Y0176591D01*
X0236001Y0176467D01*
X0235889Y0176346D01*
X0235773Y0176227D01*
X0235654Y0176111D01*
X0235533Y0175999D01*
X0235409Y0175889D01*
X0235282Y0175782D01*
X0235153Y0175679D01*
X0235021Y0175578D01*
X0234887Y0175481D01*
X0234750Y0175388D01*
X0234611Y0175297D01*
X0234470Y0175210D01*
X0234327Y0175127D01*
X0234182Y0175047D01*
X0234035Y0174971D01*
X0233886Y0174898D01*
X0233735Y0174829D01*
X0233583Y0174764D01*
X0233429Y0174702D01*
X0233274Y0174645D01*
X0233117Y0174591D01*
X0232959Y0174541D01*
X0232800Y0174495D01*
X0232640Y0174452D01*
X0232479Y0174414D01*
X0232317Y0174380D01*
X0232154Y0174349D01*
X0231990Y0174323D01*
X0231826Y0174301D01*
X0231662Y0174283D01*
X0231497Y0174268D01*
X0231331Y0174258D01*
X0231166Y0174252D01*
X0231000Y0174250D01*
X0230834Y0174252D01*
X0230669Y0174258D01*
X0230503Y0174268D01*
X0230338Y0174283D01*
X0230174Y0174301D01*
X0230010Y0174323D01*
X0229846Y0174349D01*
X0229683Y0174380D01*
X0229521Y0174414D01*
X0229360Y0174452D01*
X0229200Y0174495D01*
X0229041Y0174541D01*
X0228883Y0174591D01*
X0228726Y0174645D01*
X0228571Y0174702D01*
X0228417Y0174764D01*
X0228265Y0174829D01*
X0228114Y0174898D01*
X0227965Y0174971D01*
X0227818Y0175047D01*
X0227673Y0175127D01*
X0227530Y0175210D01*
X0227389Y0175297D01*
X0227250Y0175388D01*
X0227113Y0175481D01*
X0226979Y0175578D01*
X0226847Y0175679D01*
X0226718Y0175782D01*
X0226591Y0175889D01*
X0226467Y0175999D01*
X0226346Y0176111D01*
X0226227Y0176227D01*
X0226111Y0176346D01*
X0225999Y0176467D01*
X0225889Y0176591D01*
X0225782Y0176718D01*
X0225679Y0176847D01*
X0225578Y0176979D01*
X0225481Y0177113D01*
X0225388Y0177250D01*
X0225297Y0177389D01*
X0225210Y0177530D01*
X0225127Y0177673D01*
X0225047Y0177818D01*
X0224971Y0177965D01*
X0224898Y0178114D01*
X0224829Y0178265D01*
X0224764Y0178417D01*
X0224702Y0178571D01*
X0224645Y0178726D01*
X0224591Y0178883D01*
X0224541Y0179041D01*
X0224495Y0179200D01*
X0224452Y0179360D01*
X0224414Y0179521D01*
X0224380Y0179683D01*
X0224349Y0179846D01*
X0224323Y0180010D01*
X0224301Y0180174D01*
X0224283Y0180338D01*
X0224268Y0180503D01*
X0224258Y0180669D01*
X0224252Y0180834D01*
X0224250Y0181000D01*
X0224250Y0011000D02*
X0224252Y0011166D01*
X0224258Y0011331D01*
X0224268Y0011497D01*
X0224283Y0011662D01*
X0224301Y0011826D01*
X0224323Y0011990D01*
X0224349Y0012154D01*
X0224380Y0012317D01*
X0224414Y0012479D01*
X0224452Y0012640D01*
X0224495Y0012800D01*
X0224541Y0012959D01*
X0224591Y0013117D01*
X0224645Y0013274D01*
X0224702Y0013429D01*
X0224764Y0013583D01*
X0224829Y0013735D01*
X0224898Y0013886D01*
X0224971Y0014035D01*
X0225047Y0014182D01*
X0225127Y0014327D01*
X0225210Y0014470D01*
X0225297Y0014611D01*
X0225388Y0014750D01*
X0225481Y0014887D01*
X0225578Y0015021D01*
X0225679Y0015153D01*
X0225782Y0015282D01*
X0225889Y0015409D01*
X0225999Y0015533D01*
X0226111Y0015654D01*
X0226227Y0015773D01*
X0226346Y0015889D01*
X0226467Y0016001D01*
X0226591Y0016111D01*
X0226718Y0016218D01*
X0226847Y0016321D01*
X0226979Y0016422D01*
X0227113Y0016519D01*
X0227250Y0016612D01*
X0227389Y0016703D01*
X0227530Y0016790D01*
X0227673Y0016873D01*
X0227818Y0016953D01*
X0227965Y0017029D01*
X0228114Y0017102D01*
X0228265Y0017171D01*
X0228417Y0017236D01*
X0228571Y0017298D01*
X0228726Y0017355D01*
X0228883Y0017409D01*
X0229041Y0017459D01*
X0229200Y0017505D01*
X0229360Y0017548D01*
X0229521Y0017586D01*
X0229683Y0017620D01*
X0229846Y0017651D01*
X0230010Y0017677D01*
X0230174Y0017699D01*
X0230338Y0017717D01*
X0230503Y0017732D01*
X0230669Y0017742D01*
X0230834Y0017748D01*
X0231000Y0017750D01*
X0231166Y0017748D01*
X0231331Y0017742D01*
X0231497Y0017732D01*
X0231662Y0017717D01*
X0231826Y0017699D01*
X0231990Y0017677D01*
X0232154Y0017651D01*
X0232317Y0017620D01*
X0232479Y0017586D01*
X0232640Y0017548D01*
X0232800Y0017505D01*
X0232959Y0017459D01*
X0233117Y0017409D01*
X0233274Y0017355D01*
X0233429Y0017298D01*
X0233583Y0017236D01*
X0233735Y0017171D01*
X0233886Y0017102D01*
X0234035Y0017029D01*
X0234182Y0016953D01*
X0234327Y0016873D01*
X0234470Y0016790D01*
X0234611Y0016703D01*
X0234750Y0016612D01*
X0234887Y0016519D01*
X0235021Y0016422D01*
X0235153Y0016321D01*
X0235282Y0016218D01*
X0235409Y0016111D01*
X0235533Y0016001D01*
X0235654Y0015889D01*
X0235773Y0015773D01*
X0235889Y0015654D01*
X0236001Y0015533D01*
X0236111Y0015409D01*
X0236218Y0015282D01*
X0236321Y0015153D01*
X0236422Y0015021D01*
X0236519Y0014887D01*
X0236612Y0014750D01*
X0236703Y0014611D01*
X0236790Y0014470D01*
X0236873Y0014327D01*
X0236953Y0014182D01*
X0237029Y0014035D01*
X0237102Y0013886D01*
X0237171Y0013735D01*
X0237236Y0013583D01*
X0237298Y0013429D01*
X0237355Y0013274D01*
X0237409Y0013117D01*
X0237459Y0012959D01*
X0237505Y0012800D01*
X0237548Y0012640D01*
X0237586Y0012479D01*
X0237620Y0012317D01*
X0237651Y0012154D01*
X0237677Y0011990D01*
X0237699Y0011826D01*
X0237717Y0011662D01*
X0237732Y0011497D01*
X0237742Y0011331D01*
X0237748Y0011166D01*
X0237750Y0011000D01*
X0237748Y0010834D01*
X0237742Y0010669D01*
X0237732Y0010503D01*
X0237717Y0010338D01*
X0237699Y0010174D01*
X0237677Y0010010D01*
X0237651Y0009846D01*
X0237620Y0009683D01*
X0237586Y0009521D01*
X0237548Y0009360D01*
X0237505Y0009200D01*
X0237459Y0009041D01*
X0237409Y0008883D01*
X0237355Y0008726D01*
X0237298Y0008571D01*
X0237236Y0008417D01*
X0237171Y0008265D01*
X0237102Y0008114D01*
X0237029Y0007965D01*
X0236953Y0007818D01*
X0236873Y0007673D01*
X0236790Y0007530D01*
X0236703Y0007389D01*
X0236612Y0007250D01*
X0236519Y0007113D01*
X0236422Y0006979D01*
X0236321Y0006847D01*
X0236218Y0006718D01*
X0236111Y0006591D01*
X0236001Y0006467D01*
X0235889Y0006346D01*
X0235773Y0006227D01*
X0235654Y0006111D01*
X0235533Y0005999D01*
X0235409Y0005889D01*
X0235282Y0005782D01*
X0235153Y0005679D01*
X0235021Y0005578D01*
X0234887Y0005481D01*
X0234750Y0005388D01*
X0234611Y0005297D01*
X0234470Y0005210D01*
X0234327Y0005127D01*
X0234182Y0005047D01*
X0234035Y0004971D01*
X0233886Y0004898D01*
X0233735Y0004829D01*
X0233583Y0004764D01*
X0233429Y0004702D01*
X0233274Y0004645D01*
X0233117Y0004591D01*
X0232959Y0004541D01*
X0232800Y0004495D01*
X0232640Y0004452D01*
X0232479Y0004414D01*
X0232317Y0004380D01*
X0232154Y0004349D01*
X0231990Y0004323D01*
X0231826Y0004301D01*
X0231662Y0004283D01*
X0231497Y0004268D01*
X0231331Y0004258D01*
X0231166Y0004252D01*
X0231000Y0004250D01*
X0230834Y0004252D01*
X0230669Y0004258D01*
X0230503Y0004268D01*
X0230338Y0004283D01*
X0230174Y0004301D01*
X0230010Y0004323D01*
X0229846Y0004349D01*
X0229683Y0004380D01*
X0229521Y0004414D01*
X0229360Y0004452D01*
X0229200Y0004495D01*
X0229041Y0004541D01*
X0228883Y0004591D01*
X0228726Y0004645D01*
X0228571Y0004702D01*
X0228417Y0004764D01*
X0228265Y0004829D01*
X0228114Y0004898D01*
X0227965Y0004971D01*
X0227818Y0005047D01*
X0227673Y0005127D01*
X0227530Y0005210D01*
X0227389Y0005297D01*
X0227250Y0005388D01*
X0227113Y0005481D01*
X0226979Y0005578D01*
X0226847Y0005679D01*
X0226718Y0005782D01*
X0226591Y0005889D01*
X0226467Y0005999D01*
X0226346Y0006111D01*
X0226227Y0006227D01*
X0226111Y0006346D01*
X0225999Y0006467D01*
X0225889Y0006591D01*
X0225782Y0006718D01*
X0225679Y0006847D01*
X0225578Y0006979D01*
X0225481Y0007113D01*
X0225388Y0007250D01*
X0225297Y0007389D01*
X0225210Y0007530D01*
X0225127Y0007673D01*
X0225047Y0007818D01*
X0224971Y0007965D01*
X0224898Y0008114D01*
X0224829Y0008265D01*
X0224764Y0008417D01*
X0224702Y0008571D01*
X0224645Y0008726D01*
X0224591Y0008883D01*
X0224541Y0009041D01*
X0224495Y0009200D01*
X0224452Y0009360D01*
X0224414Y0009521D01*
X0224380Y0009683D01*
X0224349Y0009846D01*
X0224323Y0010010D01*
X0224301Y0010174D01*
X0224283Y0010338D01*
X0224268Y0010503D01*
X0224258Y0010669D01*
X0224252Y0010834D01*
X0224250Y0011000D01*
M02*
