%
M48
M72
T01C0.03200
T02C0.04000
T03C0.13500
%
T01
X66000Y66000
X81000Y66000
X81000Y106000
X66000Y106000
X156000Y106000
X156000Y96000
X156000Y116000
X196000Y116000
X196000Y106000
X196000Y96000
T02
X31000Y21000
X31000Y31000
X31000Y41000
X31000Y51000
X31000Y61000
X31000Y71000
X31000Y81000
X31000Y91000
X31000Y101000
X31000Y111000
X31000Y121000
X31000Y131000
X26000Y156000
X36000Y156000
X46000Y156000
X46000Y166000
X36000Y166000
X26000Y166000
X56000Y166000
X66000Y166000
X76000Y166000
X86000Y166000
X96000Y166000
X106000Y166000
X116000Y166000
X126000Y166000
X126000Y156000
X116000Y156000
X106000Y156000
X96000Y156000
X86000Y156000
X76000Y156000
X66000Y156000
X56000Y156000
X126000Y116000
X126000Y106000
X126000Y96000
X126000Y86000
X126000Y76000
X126000Y66000
X126000Y56000
X156000Y46000
X166000Y46000
X176000Y46000
X186000Y46000
X196000Y46000
X206000Y46000
X206000Y36000
X196000Y36000
X186000Y36000
X176000Y36000
X166000Y36000
X156000Y36000
X121000Y21000
X111000Y21000
X101000Y21000
X91000Y21000
X211000Y96000
X221000Y96000
X221000Y106000
X211000Y106000
X211000Y116000
X221000Y116000
X216000Y156000
X216000Y166000
X206000Y166000
X196000Y166000
X186000Y166000
X176000Y166000
X166000Y166000
X156000Y166000
X146000Y166000
X136000Y166000
X136000Y156000
X146000Y156000
X156000Y156000
X166000Y156000
X176000Y156000
X186000Y156000
X196000Y156000
X206000Y156000
X216000Y46000
X216000Y36000
T03
X11000Y11000
X11000Y181000
X231000Y181000
X231000Y11000
M30
