G75*
%MOIN*%
%OFA0B0*%
%FSLAX25Y25*%
%IPPOS*%
%LPD*%
%AMOC8*
5,1,8,0,0,1.08239X$1,22.5*
%
%ADD10C,0.00000*%
D10*
X0001000Y0001000D02*
X0001000Y0190961D01*
X0241472Y0190961D01*
X0241000Y0001000D01*
X0001000Y0001000D01*
X0004250Y0011000D02*
X0004252Y0011166D01*
X0004258Y0011331D01*
X0004268Y0011497D01*
X0004283Y0011662D01*
X0004301Y0011826D01*
X0004323Y0011990D01*
X0004349Y0012154D01*
X0004380Y0012317D01*
X0004414Y0012479D01*
X0004452Y0012640D01*
X0004495Y0012800D01*
X0004541Y0012959D01*
X0004591Y0013117D01*
X0004645Y0013274D01*
X0004702Y0013429D01*
X0004764Y0013583D01*
X0004829Y0013735D01*
X0004898Y0013886D01*
X0004971Y0014035D01*
X0005047Y0014182D01*
X0005127Y0014327D01*
X0005210Y0014470D01*
X0005297Y0014611D01*
X0005388Y0014750D01*
X0005481Y0014887D01*
X0005578Y0015021D01*
X0005679Y0015153D01*
X0005782Y0015282D01*
X0005889Y0015409D01*
X0005999Y0015533D01*
X0006111Y0015654D01*
X0006227Y0015773D01*
X0006346Y0015889D01*
X0006467Y0016001D01*
X0006591Y0016111D01*
X0006718Y0016218D01*
X0006847Y0016321D01*
X0006979Y0016422D01*
X0007113Y0016519D01*
X0007250Y0016612D01*
X0007389Y0016703D01*
X0007530Y0016790D01*
X0007673Y0016873D01*
X0007818Y0016953D01*
X0007965Y0017029D01*
X0008114Y0017102D01*
X0008265Y0017171D01*
X0008417Y0017236D01*
X0008571Y0017298D01*
X0008726Y0017355D01*
X0008883Y0017409D01*
X0009041Y0017459D01*
X0009200Y0017505D01*
X0009360Y0017548D01*
X0009521Y0017586D01*
X0009683Y0017620D01*
X0009846Y0017651D01*
X0010010Y0017677D01*
X0010174Y0017699D01*
X0010338Y0017717D01*
X0010503Y0017732D01*
X0010669Y0017742D01*
X0010834Y0017748D01*
X0011000Y0017750D01*
X0011166Y0017748D01*
X0011331Y0017742D01*
X0011497Y0017732D01*
X0011662Y0017717D01*
X0011826Y0017699D01*
X0011990Y0017677D01*
X0012154Y0017651D01*
X0012317Y0017620D01*
X0012479Y0017586D01*
X0012640Y0017548D01*
X0012800Y0017505D01*
X0012959Y0017459D01*
X0013117Y0017409D01*
X0013274Y0017355D01*
X0013429Y0017298D01*
X0013583Y0017236D01*
X0013735Y0017171D01*
X0013886Y0017102D01*
X0014035Y0017029D01*
X0014182Y0016953D01*
X0014327Y0016873D01*
X0014470Y0016790D01*
X0014611Y0016703D01*
X0014750Y0016612D01*
X0014887Y0016519D01*
X0015021Y0016422D01*
X0015153Y0016321D01*
X0015282Y0016218D01*
X0015409Y0016111D01*
X0015533Y0016001D01*
X0015654Y0015889D01*
X0015773Y0015773D01*
X0015889Y0015654D01*
X0016001Y0015533D01*
X0016111Y0015409D01*
X0016218Y0015282D01*
X0016321Y0015153D01*
X0016422Y0015021D01*
X0016519Y0014887D01*
X0016612Y0014750D01*
X0016703Y0014611D01*
X0016790Y0014470D01*
X0016873Y0014327D01*
X0016953Y0014182D01*
X0017029Y0014035D01*
X0017102Y0013886D01*
X0017171Y0013735D01*
X0017236Y0013583D01*
X0017298Y0013429D01*
X0017355Y0013274D01*
X0017409Y0013117D01*
X0017459Y0012959D01*
X0017505Y0012800D01*
X0017548Y0012640D01*
X0017586Y0012479D01*
X0017620Y0012317D01*
X0017651Y0012154D01*
X0017677Y0011990D01*
X0017699Y0011826D01*
X0017717Y0011662D01*
X0017732Y0011497D01*
X0017742Y0011331D01*
X0017748Y0011166D01*
X0017750Y0011000D01*
X0017748Y0010834D01*
X0017742Y0010669D01*
X0017732Y0010503D01*
X0017717Y0010338D01*
X0017699Y0010174D01*
X0017677Y0010010D01*
X0017651Y0009846D01*
X0017620Y0009683D01*
X0017586Y0009521D01*
X0017548Y0009360D01*
X0017505Y0009200D01*
X0017459Y0009041D01*
X0017409Y0008883D01*
X0017355Y0008726D01*
X0017298Y0008571D01*
X0017236Y0008417D01*
X0017171Y0008265D01*
X0017102Y0008114D01*
X0017029Y0007965D01*
X0016953Y0007818D01*
X0016873Y0007673D01*
X0016790Y0007530D01*
X0016703Y0007389D01*
X0016612Y0007250D01*
X0016519Y0007113D01*
X0016422Y0006979D01*
X0016321Y0006847D01*
X0016218Y0006718D01*
X0016111Y0006591D01*
X0016001Y0006467D01*
X0015889Y0006346D01*
X0015773Y0006227D01*
X0015654Y0006111D01*
X0015533Y0005999D01*
X0015409Y0005889D01*
X0015282Y0005782D01*
X0015153Y0005679D01*
X0015021Y0005578D01*
X0014887Y0005481D01*
X0014750Y0005388D01*
X0014611Y0005297D01*
X0014470Y0005210D01*
X0014327Y0005127D01*
X0014182Y0005047D01*
X0014035Y0004971D01*
X0013886Y0004898D01*
X0013735Y0004829D01*
X0013583Y0004764D01*
X0013429Y0004702D01*
X0013274Y0004645D01*
X0013117Y0004591D01*
X0012959Y0004541D01*
X0012800Y0004495D01*
X0012640Y0004452D01*
X0012479Y0004414D01*
X0012317Y0004380D01*
X0012154Y0004349D01*
X0011990Y0004323D01*
X0011826Y0004301D01*
X0011662Y0004283D01*
X0011497Y0004268D01*
X0011331Y0004258D01*
X0011166Y0004252D01*
X0011000Y0004250D01*
X0010834Y0004252D01*
X0010669Y0004258D01*
X0010503Y0004268D01*
X0010338Y0004283D01*
X0010174Y0004301D01*
X0010010Y0004323D01*
X0009846Y0004349D01*
X0009683Y0004380D01*
X0009521Y0004414D01*
X0009360Y0004452D01*
X0009200Y0004495D01*
X0009041Y0004541D01*
X0008883Y0004591D01*
X0008726Y0004645D01*
X0008571Y0004702D01*
X0008417Y0004764D01*
X0008265Y0004829D01*
X0008114Y0004898D01*
X0007965Y0004971D01*
X0007818Y0005047D01*
X0007673Y0005127D01*
X0007530Y0005210D01*
X0007389Y0005297D01*
X0007250Y0005388D01*
X0007113Y0005481D01*
X0006979Y0005578D01*
X0006847Y0005679D01*
X0006718Y0005782D01*
X0006591Y0005889D01*
X0006467Y0005999D01*
X0006346Y0006111D01*
X0006227Y0006227D01*
X0006111Y0006346D01*
X0005999Y0006467D01*
X0005889Y0006591D01*
X0005782Y0006718D01*
X0005679Y0006847D01*
X0005578Y0006979D01*
X0005481Y0007113D01*
X0005388Y0007250D01*
X0005297Y0007389D01*
X0005210Y0007530D01*
X0005127Y0007673D01*
X0005047Y0007818D01*
X0004971Y0007965D01*
X0004898Y0008114D01*
X0004829Y0008265D01*
X0004764Y0008417D01*
X0004702Y0008571D01*
X0004645Y0008726D01*
X0004591Y0008883D01*
X0004541Y0009041D01*
X0004495Y0009200D01*
X0004452Y0009360D01*
X0004414Y0009521D01*
X0004380Y0009683D01*
X0004349Y0009846D01*
X0004323Y0010010D01*
X0004301Y0010174D01*
X0004283Y0010338D01*
X0004268Y0010503D01*
X0004258Y0010669D01*
X0004252Y0010834D01*
X0004250Y0011000D01*
X0004250Y0181000D02*
X0004252Y0181166D01*
X0004258Y0181331D01*
X0004268Y0181497D01*
X0004283Y0181662D01*
X0004301Y0181826D01*
X0004323Y0181990D01*
X0004349Y0182154D01*
X0004380Y0182317D01*
X0004414Y0182479D01*
X0004452Y0182640D01*
X0004495Y0182800D01*
X0004541Y0182959D01*
X0004591Y0183117D01*
X0004645Y0183274D01*
X0004702Y0183429D01*
X0004764Y0183583D01*
X0004829Y0183735D01*
X0004898Y0183886D01*
X0004971Y0184035D01*
X0005047Y0184182D01*
X0005127Y0184327D01*
X0005210Y0184470D01*
X0005297Y0184611D01*
X0005388Y0184750D01*
X0005481Y0184887D01*
X0005578Y0185021D01*
X0005679Y0185153D01*
X0005782Y0185282D01*
X0005889Y0185409D01*
X0005999Y0185533D01*
X0006111Y0185654D01*
X0006227Y0185773D01*
X0006346Y0185889D01*
X0006467Y0186001D01*
X0006591Y0186111D01*
X0006718Y0186218D01*
X0006847Y0186321D01*
X0006979Y0186422D01*
X0007113Y0186519D01*
X0007250Y0186612D01*
X0007389Y0186703D01*
X0007530Y0186790D01*
X0007673Y0186873D01*
X0007818Y0186953D01*
X0007965Y0187029D01*
X0008114Y0187102D01*
X0008265Y0187171D01*
X0008417Y0187236D01*
X0008571Y0187298D01*
X0008726Y0187355D01*
X0008883Y0187409D01*
X0009041Y0187459D01*
X0009200Y0187505D01*
X0009360Y0187548D01*
X0009521Y0187586D01*
X0009683Y0187620D01*
X0009846Y0187651D01*
X0010010Y0187677D01*
X0010174Y0187699D01*
X0010338Y0187717D01*
X0010503Y0187732D01*
X0010669Y0187742D01*
X0010834Y0187748D01*
X0011000Y0187750D01*
X0011166Y0187748D01*
X0011331Y0187742D01*
X0011497Y0187732D01*
X0011662Y0187717D01*
X0011826Y0187699D01*
X0011990Y0187677D01*
X0012154Y0187651D01*
X0012317Y0187620D01*
X0012479Y0187586D01*
X0012640Y0187548D01*
X0012800Y0187505D01*
X0012959Y0187459D01*
X0013117Y0187409D01*
X0013274Y0187355D01*
X0013429Y0187298D01*
X0013583Y0187236D01*
X0013735Y0187171D01*
X0013886Y0187102D01*
X0014035Y0187029D01*
X0014182Y0186953D01*
X0014327Y0186873D01*
X0014470Y0186790D01*
X0014611Y0186703D01*
X0014750Y0186612D01*
X0014887Y0186519D01*
X0015021Y0186422D01*
X0015153Y0186321D01*
X0015282Y0186218D01*
X0015409Y0186111D01*
X0015533Y0186001D01*
X0015654Y0185889D01*
X0015773Y0185773D01*
X0015889Y0185654D01*
X0016001Y0185533D01*
X0016111Y0185409D01*
X0016218Y0185282D01*
X0016321Y0185153D01*
X0016422Y0185021D01*
X0016519Y0184887D01*
X0016612Y0184750D01*
X0016703Y0184611D01*
X0016790Y0184470D01*
X0016873Y0184327D01*
X0016953Y0184182D01*
X0017029Y0184035D01*
X0017102Y0183886D01*
X0017171Y0183735D01*
X0017236Y0183583D01*
X0017298Y0183429D01*
X0017355Y0183274D01*
X0017409Y0183117D01*
X0017459Y0182959D01*
X0017505Y0182800D01*
X0017548Y0182640D01*
X0017586Y0182479D01*
X0017620Y0182317D01*
X0017651Y0182154D01*
X0017677Y0181990D01*
X0017699Y0181826D01*
X0017717Y0181662D01*
X0017732Y0181497D01*
X0017742Y0181331D01*
X0017748Y0181166D01*
X0017750Y0181000D01*
X0017748Y0180834D01*
X0017742Y0180669D01*
X0017732Y0180503D01*
X0017717Y0180338D01*
X0017699Y0180174D01*
X0017677Y0180010D01*
X0017651Y0179846D01*
X0017620Y0179683D01*
X0017586Y0179521D01*
X0017548Y0179360D01*
X0017505Y0179200D01*
X0017459Y0179041D01*
X0017409Y0178883D01*
X0017355Y0178726D01*
X0017298Y0178571D01*
X0017236Y0178417D01*
X0017171Y0178265D01*
X0017102Y0178114D01*
X0017029Y0177965D01*
X0016953Y0177818D01*
X0016873Y0177673D01*
X0016790Y0177530D01*
X0016703Y0177389D01*
X0016612Y0177250D01*
X0016519Y0177113D01*
X0016422Y0176979D01*
X0016321Y0176847D01*
X0016218Y0176718D01*
X0016111Y0176591D01*
X0016001Y0176467D01*
X0015889Y0176346D01*
X0015773Y0176227D01*
X0015654Y0176111D01*
X0015533Y0175999D01*
X0015409Y0175889D01*
X0015282Y0175782D01*
X0015153Y0175679D01*
X0015021Y0175578D01*
X0014887Y0175481D01*
X0014750Y0175388D01*
X0014611Y0175297D01*
X0014470Y0175210D01*
X0014327Y0175127D01*
X0014182Y0175047D01*
X0014035Y0174971D01*
X0013886Y0174898D01*
X0013735Y0174829D01*
X0013583Y0174764D01*
X0013429Y0174702D01*
X0013274Y0174645D01*
X0013117Y0174591D01*
X0012959Y0174541D01*
X0012800Y0174495D01*
X0012640Y0174452D01*
X0012479Y0174414D01*
X0012317Y0174380D01*
X0012154Y0174349D01*
X0011990Y0174323D01*
X0011826Y0174301D01*
X0011662Y0174283D01*
X0011497Y0174268D01*
X0011331Y0174258D01*
X0011166Y0174252D01*
X0011000Y0174250D01*
X0010834Y0174252D01*
X0010669Y0174258D01*
X0010503Y0174268D01*
X0010338Y0174283D01*
X0010174Y0174301D01*
X0010010Y0174323D01*
X0009846Y0174349D01*
X0009683Y0174380D01*
X0009521Y0174414D01*
X0009360Y0174452D01*
X0009200Y0174495D01*
X0009041Y0174541D01*
X0008883Y0174591D01*
X0008726Y0174645D01*
X0008571Y0174702D01*
X0008417Y0174764D01*
X0008265Y0174829D01*
X0008114Y0174898D01*
X0007965Y0174971D01*
X0007818Y0175047D01*
X0007673Y0175127D01*
X0007530Y0175210D01*
X0007389Y0175297D01*
X0007250Y0175388D01*
X0007113Y0175481D01*
X0006979Y0175578D01*
X0006847Y0175679D01*
X0006718Y0175782D01*
X0006591Y0175889D01*
X0006467Y0175999D01*
X0006346Y0176111D01*
X0006227Y0176227D01*
X0006111Y0176346D01*
X0005999Y0176467D01*
X0005889Y0176591D01*
X0005782Y0176718D01*
X0005679Y0176847D01*
X0005578Y0176979D01*
X0005481Y0177113D01*
X0005388Y0177250D01*
X0005297Y0177389D01*
X0005210Y0177530D01*
X0005127Y0177673D01*
X0005047Y0177818D01*
X0004971Y0177965D01*
X0004898Y0178114D01*
X0004829Y0178265D01*
X0004764Y0178417D01*
X0004702Y0178571D01*
X0004645Y0178726D01*
X0004591Y0178883D01*
X0004541Y0179041D01*
X0004495Y0179200D01*
X0004452Y0179360D01*
X0004414Y0179521D01*
X0004380Y0179683D01*
X0004349Y0179846D01*
X0004323Y0180010D01*
X0004301Y0180174D01*
X0004283Y0180338D01*
X0004268Y0180503D01*
X0004258Y0180669D01*
X0004252Y0180834D01*
X0004250Y0181000D01*
X0224250Y0181000D02*
X0224252Y0181166D01*
X0224258Y0181331D01*
X0224268Y0181497D01*
X0224283Y0181662D01*
X0224301Y0181826D01*
X0224323Y0181990D01*
X0224349Y0182154D01*
X0224380Y0182317D01*
X0224414Y0182479D01*
X0224452Y0182640D01*
X0224495Y0182800D01*
X0224541Y0182959D01*
X0224591Y0183117D01*
X0224645Y0183274D01*
X0224702Y0183429D01*
X0224764Y0183583D01*
X0224829Y0183735D01*
X0224898Y0183886D01*
X0224971Y0184035D01*
X0225047Y0184182D01*
X0225127Y0184327D01*
X0225210Y0184470D01*
X0225297Y0184611D01*
X0225388Y0184750D01*
X0225481Y0184887D01*
X0225578Y0185021D01*
X0225679Y0185153D01*
X0225782Y0185282D01*
X0225889Y0185409D01*
X0225999Y0185533D01*
X0226111Y0185654D01*
X0226227Y0185773D01*
X0226346Y0185889D01*
X0226467Y0186001D01*
X0226591Y0186111D01*
X0226718Y0186218D01*
X0226847Y0186321D01*
X0226979Y0186422D01*
X0227113Y0186519D01*
X0227250Y0186612D01*
X0227389Y0186703D01*
X0227530Y0186790D01*
X0227673Y0186873D01*
X0227818Y0186953D01*
X0227965Y0187029D01*
X0228114Y0187102D01*
X0228265Y0187171D01*
X0228417Y0187236D01*
X0228571Y0187298D01*
X0228726Y0187355D01*
X0228883Y0187409D01*
X0229041Y0187459D01*
X0229200Y0187505D01*
X0229360Y0187548D01*
X0229521Y0187586D01*
X0229683Y0187620D01*
X0229846Y0187651D01*
X0230010Y0187677D01*
X0230174Y0187699D01*
X0230338Y0187717D01*
X0230503Y0187732D01*
X0230669Y0187742D01*
X0230834Y0187748D01*
X0231000Y0187750D01*
X0231166Y0187748D01*
X0231331Y0187742D01*
X0231497Y0187732D01*
X0231662Y0187717D01*
X0231826Y0187699D01*
X0231990Y0187677D01*
X0232154Y0187651D01*
X0232317Y0187620D01*
X0232479Y0187586D01*
X0232640Y0187548D01*
X0232800Y0187505D01*
X0232959Y0187459D01*
X0233117Y0187409D01*
X0233274Y0187355D01*
X0233429Y0187298D01*
X0233583Y0187236D01*
X0233735Y0187171D01*
X0233886Y0187102D01*
X0234035Y0187029D01*
X0234182Y0186953D01*
X0234327Y0186873D01*
X0234470Y0186790D01*
X0234611Y0186703D01*
X0234750Y0186612D01*
X0234887Y0186519D01*
X0235021Y0186422D01*
X0235153Y0186321D01*
X0235282Y0186218D01*
X0235409Y0186111D01*
X0235533Y0186001D01*
X0235654Y0185889D01*
X0235773Y0185773D01*
X0235889Y0185654D01*
X0236001Y0185533D01*
X0236111Y0185409D01*
X0236218Y0185282D01*
X0236321Y0185153D01*
X0236422Y0185021D01*
X0236519Y0184887D01*
X0236612Y0184750D01*
X0236703Y0184611D01*
X0236790Y0184470D01*
X0236873Y0184327D01*
X0236953Y0184182D01*
X0237029Y0184035D01*
X0237102Y0183886D01*
X0237171Y0183735D01*
X0237236Y0183583D01*
X0237298Y0183429D01*
X0237355Y0183274D01*
X0237409Y0183117D01*
X0237459Y0182959D01*
X0237505Y0182800D01*
X0237548Y0182640D01*
X0237586Y0182479D01*
X0237620Y0182317D01*
X0237651Y0182154D01*
X0237677Y0181990D01*
X0237699Y0181826D01*
X0237717Y0181662D01*
X0237732Y0181497D01*
X0237742Y0181331D01*
X0237748Y0181166D01*
X0237750Y0181000D01*
X0237748Y0180834D01*
X0237742Y0180669D01*
X0237732Y0180503D01*
X0237717Y0180338D01*
X0237699Y0180174D01*
X0237677Y0180010D01*
X0237651Y0179846D01*
X0237620Y0179683D01*
X0237586Y0179521D01*
X0237548Y0179360D01*
X0237505Y0179200D01*
X0237459Y0179041D01*
X0237409Y0178883D01*
X0237355Y0178726D01*
X0237298Y0178571D01*
X0237236Y0178417D01*
X0237171Y0178265D01*
X0237102Y0178114D01*
X0237029Y0177965D01*
X0236953Y0177818D01*
X0236873Y0177673D01*
X0236790Y0177530D01*
X0236703Y0177389D01*
X0236612Y0177250D01*
X0236519Y0177113D01*
X0236422Y0176979D01*
X0236321Y0176847D01*
X0236218Y0176718D01*
X0236111Y0176591D01*
X0236001Y0176467D01*
X0235889Y0176346D01*
X0235773Y0176227D01*
X0235654Y0176111D01*
X0235533Y0175999D01*
X0235409Y0175889D01*
X0235282Y0175782D01*
X0235153Y0175679D01*
X0235021Y0175578D01*
X0234887Y0175481D01*
X0234750Y0175388D01*
X0234611Y0175297D01*
X0234470Y0175210D01*
X0234327Y0175127D01*
X0234182Y0175047D01*
X0234035Y0174971D01*
X0233886Y0174898D01*
X0233735Y0174829D01*
X0233583Y0174764D01*
X0233429Y0174702D01*
X0233274Y0174645D01*
X0233117Y0174591D01*
X0232959Y0174541D01*
X0232800Y0174495D01*
X0232640Y0174452D01*
X0232479Y0174414D01*
X0232317Y0174380D01*
X0232154Y0174349D01*
X0231990Y0174323D01*
X0231826Y0174301D01*
X0231662Y0174283D01*
X0231497Y0174268D01*
X0231331Y0174258D01*
X0231166Y0174252D01*
X0231000Y0174250D01*
X0230834Y0174252D01*
X0230669Y0174258D01*
X0230503Y0174268D01*
X0230338Y0174283D01*
X0230174Y0174301D01*
X0230010Y0174323D01*
X0229846Y0174349D01*
X0229683Y0174380D01*
X0229521Y0174414D01*
X0229360Y0174452D01*
X0229200Y0174495D01*
X0229041Y0174541D01*
X0228883Y0174591D01*
X0228726Y0174645D01*
X0228571Y0174702D01*
X0228417Y0174764D01*
X0228265Y0174829D01*
X0228114Y0174898D01*
X0227965Y0174971D01*
X0227818Y0175047D01*
X0227673Y0175127D01*
X0227530Y0175210D01*
X0227389Y0175297D01*
X0227250Y0175388D01*
X0227113Y0175481D01*
X0226979Y0175578D01*
X0226847Y0175679D01*
X0226718Y0175782D01*
X0226591Y0175889D01*
X0226467Y0175999D01*
X0226346Y0176111D01*
X0226227Y0176227D01*
X0226111Y0176346D01*
X0225999Y0176467D01*
X0225889Y0176591D01*
X0225782Y0176718D01*
X0225679Y0176847D01*
X0225578Y0176979D01*
X0225481Y0177113D01*
X0225388Y0177250D01*
X0225297Y0177389D01*
X0225210Y0177530D01*
X0225127Y0177673D01*
X0225047Y0177818D01*
X0224971Y0177965D01*
X0224898Y0178114D01*
X0224829Y0178265D01*
X0224764Y0178417D01*
X0224702Y0178571D01*
X0224645Y0178726D01*
X0224591Y0178883D01*
X0224541Y0179041D01*
X0224495Y0179200D01*
X0224452Y0179360D01*
X0224414Y0179521D01*
X0224380Y0179683D01*
X0224349Y0179846D01*
X0224323Y0180010D01*
X0224301Y0180174D01*
X0224283Y0180338D01*
X0224268Y0180503D01*
X0224258Y0180669D01*
X0224252Y0180834D01*
X0224250Y0181000D01*
X0224250Y0011000D02*
X0224252Y0011166D01*
X0224258Y0011331D01*
X0224268Y0011497D01*
X0224283Y0011662D01*
X0224301Y0011826D01*
X0224323Y0011990D01*
X0224349Y0012154D01*
X0224380Y0012317D01*
X0224414Y0012479D01*
X0224452Y0012640D01*
X0224495Y0012800D01*
X0224541Y0012959D01*
X0224591Y0013117D01*
X0224645Y0013274D01*
X0224702Y0013429D01*
X0224764Y0013583D01*
X0224829Y0013735D01*
X0224898Y0013886D01*
X0224971Y0014035D01*
X0225047Y0014182D01*
X0225127Y0014327D01*
X0225210Y0014470D01*
X0225297Y0014611D01*
X0225388Y0014750D01*
X0225481Y0014887D01*
X0225578Y0015021D01*
X0225679Y0015153D01*
X0225782Y0015282D01*
X0225889Y0015409D01*
X0225999Y0015533D01*
X0226111Y0015654D01*
X0226227Y0015773D01*
X0226346Y0015889D01*
X0226467Y0016001D01*
X0226591Y0016111D01*
X0226718Y0016218D01*
X0226847Y0016321D01*
X0226979Y0016422D01*
X0227113Y0016519D01*
X0227250Y0016612D01*
X0227389Y0016703D01*
X0227530Y0016790D01*
X0227673Y0016873D01*
X0227818Y0016953D01*
X0227965Y0017029D01*
X0228114Y0017102D01*
X0228265Y0017171D01*
X0228417Y0017236D01*
X0228571Y0017298D01*
X0228726Y0017355D01*
X0228883Y0017409D01*
X0229041Y0017459D01*
X0229200Y0017505D01*
X0229360Y0017548D01*
X0229521Y0017586D01*
X0229683Y0017620D01*
X0229846Y0017651D01*
X0230010Y0017677D01*
X0230174Y0017699D01*
X0230338Y0017717D01*
X0230503Y0017732D01*
X0230669Y0017742D01*
X0230834Y0017748D01*
X0231000Y0017750D01*
X0231166Y0017748D01*
X0231331Y0017742D01*
X0231497Y0017732D01*
X0231662Y0017717D01*
X0231826Y0017699D01*
X0231990Y0017677D01*
X0232154Y0017651D01*
X0232317Y0017620D01*
X0232479Y0017586D01*
X0232640Y0017548D01*
X0232800Y0017505D01*
X0232959Y0017459D01*
X0233117Y0017409D01*
X0233274Y0017355D01*
X0233429Y0017298D01*
X0233583Y0017236D01*
X0233735Y0017171D01*
X0233886Y0017102D01*
X0234035Y0017029D01*
X0234182Y0016953D01*
X0234327Y0016873D01*
X0234470Y0016790D01*
X0234611Y0016703D01*
X0234750Y0016612D01*
X0234887Y0016519D01*
X0235021Y0016422D01*
X0235153Y0016321D01*
X0235282Y0016218D01*
X0235409Y0016111D01*
X0235533Y0016001D01*
X0235654Y0015889D01*
X0235773Y0015773D01*
X0235889Y0015654D01*
X0236001Y0015533D01*
X0236111Y0015409D01*
X0236218Y0015282D01*
X0236321Y0015153D01*
X0236422Y0015021D01*
X0236519Y0014887D01*
X0236612Y0014750D01*
X0236703Y0014611D01*
X0236790Y0014470D01*
X0236873Y0014327D01*
X0236953Y0014182D01*
X0237029Y0014035D01*
X0237102Y0013886D01*
X0237171Y0013735D01*
X0237236Y0013583D01*
X0237298Y0013429D01*
X0237355Y0013274D01*
X0237409Y0013117D01*
X0237459Y0012959D01*
X0237505Y0012800D01*
X0237548Y0012640D01*
X0237586Y0012479D01*
X0237620Y0012317D01*
X0237651Y0012154D01*
X0237677Y0011990D01*
X0237699Y0011826D01*
X0237717Y0011662D01*
X0237732Y0011497D01*
X0237742Y0011331D01*
X0237748Y0011166D01*
X0237750Y0011000D01*
X0237748Y0010834D01*
X0237742Y0010669D01*
X0237732Y0010503D01*
X0237717Y0010338D01*
X0237699Y0010174D01*
X0237677Y0010010D01*
X0237651Y0009846D01*
X0237620Y0009683D01*
X0237586Y0009521D01*
X0237548Y0009360D01*
X0237505Y0009200D01*
X0237459Y0009041D01*
X0237409Y0008883D01*
X0237355Y0008726D01*
X0237298Y0008571D01*
X0237236Y0008417D01*
X0237171Y0008265D01*
X0237102Y0008114D01*
X0237029Y0007965D01*
X0236953Y0007818D01*
X0236873Y0007673D01*
X0236790Y0007530D01*
X0236703Y0007389D01*
X0236612Y0007250D01*
X0236519Y0007113D01*
X0236422Y0006979D01*
X0236321Y0006847D01*
X0236218Y0006718D01*
X0236111Y0006591D01*
X0236001Y0006467D01*
X0235889Y0006346D01*
X0235773Y0006227D01*
X0235654Y0006111D01*
X0235533Y0005999D01*
X0235409Y0005889D01*
X0235282Y0005782D01*
X0235153Y0005679D01*
X0235021Y0005578D01*
X0234887Y0005481D01*
X0234750Y0005388D01*
X0234611Y0005297D01*
X0234470Y0005210D01*
X0234327Y0005127D01*
X0234182Y0005047D01*
X0234035Y0004971D01*
X0233886Y0004898D01*
X0233735Y0004829D01*
X0233583Y0004764D01*
X0233429Y0004702D01*
X0233274Y0004645D01*
X0233117Y0004591D01*
X0232959Y0004541D01*
X0232800Y0004495D01*
X0232640Y0004452D01*
X0232479Y0004414D01*
X0232317Y0004380D01*
X0232154Y0004349D01*
X0231990Y0004323D01*
X0231826Y0004301D01*
X0231662Y0004283D01*
X0231497Y0004268D01*
X0231331Y0004258D01*
X0231166Y0004252D01*
X0231000Y0004250D01*
X0230834Y0004252D01*
X0230669Y0004258D01*
X0230503Y0004268D01*
X0230338Y0004283D01*
X0230174Y0004301D01*
X0230010Y0004323D01*
X0229846Y0004349D01*
X0229683Y0004380D01*
X0229521Y0004414D01*
X0229360Y0004452D01*
X0229200Y0004495D01*
X0229041Y0004541D01*
X0228883Y0004591D01*
X0228726Y0004645D01*
X0228571Y0004702D01*
X0228417Y0004764D01*
X0228265Y0004829D01*
X0228114Y0004898D01*
X0227965Y0004971D01*
X0227818Y0005047D01*
X0227673Y0005127D01*
X0227530Y0005210D01*
X0227389Y0005297D01*
X0227250Y0005388D01*
X0227113Y0005481D01*
X0226979Y0005578D01*
X0226847Y0005679D01*
X0226718Y0005782D01*
X0226591Y0005889D01*
X0226467Y0005999D01*
X0226346Y0006111D01*
X0226227Y0006227D01*
X0226111Y0006346D01*
X0225999Y0006467D01*
X0225889Y0006591D01*
X0225782Y0006718D01*
X0225679Y0006847D01*
X0225578Y0006979D01*
X0225481Y0007113D01*
X0225388Y0007250D01*
X0225297Y0007389D01*
X0225210Y0007530D01*
X0225127Y0007673D01*
X0225047Y0007818D01*
X0224971Y0007965D01*
X0224898Y0008114D01*
X0224829Y0008265D01*
X0224764Y0008417D01*
X0224702Y0008571D01*
X0224645Y0008726D01*
X0224591Y0008883D01*
X0224541Y0009041D01*
X0224495Y0009200D01*
X0224452Y0009360D01*
X0224414Y0009521D01*
X0224380Y0009683D01*
X0224349Y0009846D01*
X0224323Y0010010D01*
X0224301Y0010174D01*
X0224283Y0010338D01*
X0224268Y0010503D01*
X0224258Y0010669D01*
X0224252Y0010834D01*
X0224250Y0011000D01*
M02*
